<ttFont>
          <CharString index="0">
            -92 callgsubr
            117 -100 -294 12 callgsubr
            return
          </CharString>
          <CharString index="1">
            -107 callsubr
            53 37 13 25 24 hvcurveto
            return
          </CharString>
          <CharString index="2">
            -107 callgsubr
            410 vlineto
            5 return
          </CharString>
          <CharString index="3">
            hhcurveto
            -49 -14 -65 callgsubr
            14 22 49 -90 callsubr
            return
          </CharString>
          <CharString index="4">
            rmoveto
            91 -52 55 -111 -111 -51 -55 -91 -17 2 -17 1 -8 vhcurveto
            100 hlineto
            -1 7 -2 14 16 vvcurveto
            32 12 26 50 51 12 -24 -32 vhcurveto
            -128 331 callsubr
            -26 -25 6 4 -11 vhcurveto
            61 -100 -236 vlineto
            -98 62 -70 123 135 callsubr
            vhcurveto
            93 vlineto
            -13 -36 -32 -9 -50 hhcurveto
            -68 -30 125 callsubr
            11 29 62 callsubr
            return
          </CharString>
          <CharString index="5" raw="1">
            fb42072d 1d0b  
          </CharString>
          <CharString index="6">
            rmoveto
            -100 callsubr
            44 hlineto
            return
          </CharString>
          <CharString index="7">
            -16 callgsubr
            142 vlineto
            32 11 20 43 vhcurveto
            return
          </CharString>
          <CharString index="8">
            -146 -95 callsubr
            return
          </CharString>
          <CharString index="9">
            -10 -53 hhcurveto
            -68 -35 -56 callgsubr
            18 20 -3 23 hhcurveto
            return
          </CharString>
          <CharString index="10">
            224 callsubr
            -34 -25 4 7 -28 vhcurveto
            -91 vlineto
            -7 27 23 99 callgsubr
            64 52 102 hvcurveto
            return
          </CharString>
          <CharString index="11">
            23 55 565 rmoveto
            -98 vlineto
            9 23 55 12 54 hhcurveto
            69 17 -22 -43 1 hvcurveto
            -71 vlineto
            -125 -34 rlineto
            -86 -24 -37 -44 -79 vvcurveto
            -33 vlineto
            -93 41 -48 96 61 31 22 23 21 vhcurveto
            -42 102 423 vlineto
            102 -47 59 -134 -62 -54 -10 -9 -26 vhcurveto
            218 -459 rmoveto
            -14 -18 -31 -12 -32 hhcurveto
            -45 -15 20 37 hvcurveto
            29 vlineto
            42 11 17 48 14 vhcurveto
            82 23 rlineto
            return
          </CharString>
          <CharString index="12">
            vlineto
            -87 callgsubr
            return
          </CharString>
          <CharString index="13">
            -97 callsubr
            142 48 callsubr
            return
          </CharString>
          <CharString index="14">
            213 callsubr
            hlineto
            -36 -18 -21 -19 callsubr
            -95 vlineto
            -1 3 28 -2 14 hhcurveto
            94 53 52 94 hvcurveto
            return
          </CharString>
          <CharString index="15">
            78 callgsubr
            110 -96 -262 vlineto
            -83 callsubr
            return
          </CharString>
          <CharString index="16">
            157 rmoveto
            -4 -10 -27 -76 callgsubr
            21 -2 callgsubr
            13 vhcurveto
            return
          </CharString>
          <CharString index="17">
            vhcurveto
            7 8 -1 4 hhcurveto
            86 vlineto
            -4 -13 3 -13 hhcurveto
            return
          </CharString>
          <CharString index="18">
            -4 17 20 -2 20 hhcurveto
            105 46 52 100 hvcurveto
            121 vlineto
            39 -9 20 0 vhcurveto
            return
          </CharString>
          <CharString index="19">
            -85 90 -81 callgsubr
            return
          </CharString>
          <CharString index="20">
            -78 callgsubr
            48 5 callgsubr
            10 23 44 return
          </CharString>
          <CharString index="21">
            rmoveto
            -95 callgsubr
            return
          </CharString>
          <CharString index="22">
            -102 hlineto
            -84 callsubr
            return
          </CharString>
          <CharString index="23">
            -6 27 -13 22 -22 11 rrcurveto
            36 19 11 44 45 vvcurveto
            46 vlineto
            93 -54 59 -128 -40 -33 -6 -8 -24 vhcurveto
            -93 vlineto
            10 31 33 5 32 hhcurveto
            62 23 -23 -41 hvcurveto
            -42 vlineto
            -37 -13 -25 -56 vhcurveto
            -60 -93 60 hlineto
            56 13 -26 -38 hvcurveto
            -57 vlineto
            -41 -1 -22 -24 -62 hhcurveto
            -32 -43 6 9 -33 hvcurveto
            -92 vlineto
            -8 28 42 -6 38 hhcurveto
            129 54 59 93 hvcurveto
            26 96 -213 -67 callsubr
            return
          </CharString>
          <CharString index="24">
            -121 78 -68 143 46 54 7 11 36 160 callsubr
            -34 -44 83 callsubr
            return
          </CharString>
          <CharString index="25">
            10 callgsubr
            -103 -53 -54 -91 hvcurveto
            -65 callsubr
            return
          </CharString>
          <CharString index="26">
            rmoveto
            -366 vlineto
            -98 60 105 callgsubr
            366 vlineto
            97 -60 71 -128 -128 -60 -71 -97 vhcurveto
            268 -5 rmoveto
            -356 vlineto
            -45 -23 -30 -57 -58 -22 30 45 vhcurveto
            356 vlineto
            45 22 29 58 57 23 -30 -44 vhcurveto
            return
          </CharString>
          <CharString index="27">
            rmoveto
            -283 vlineto
            -93 53 -65 122 122 53 65 93 vhcurveto
            283 vlineto
            93 -53 105 callsubr
            243 -3 rmoveto
            -277 vlineto
            -41 -19 -27 -49 -49 -20 27 41 vhcurveto
            277 vlineto
            40 20 28 49 49 19 -28 -40 vhcurveto
            return
          </CharString>
          <CharString index="28">
            -3 -10 -20 -4 -22 hhcurveto
            -53 -16 24 33 hvcurveto
            319 121 vlineto
            return
          </CharString>
          <CharString index="29">
            rmoveto
            -41 -21 -22 -52 -52 -20 22 41 vhcurveto
            82 vlineto
            42 20 22 52 52 21 -22 -42 vhcurveto
            151 98 rmoveto
            99 -16 vlineto
            -48 -36 -23 -44 -14 hvcurveto
            14 -28 -37 8 -45 hhcurveto
            -124 -56 -58 -93 hvcurveto
            -83 vlineto
            -70 32 -51 68 -21 vhcurveto
            -32 -7 -20 -26 -36 vvcurveto
            -16 vlineto
            -60 47 -27 86 vhcurveto
            60 hlineto
            46 9 -16 -25 hvcurveto
            -8 vlineto
            -31 -24 -19 -81 vhcurveto
            -29 hlineto
            -73 -59 22 24 -36 hvcurveto
            -100 vlineto
            -19 28 59 -19 83 hhcurveto
            39 hlineto
            137 58 55 86 hvcurveto
            18 vlineto
            82 -45 39 -99 vhcurveto
            -57 hlineto
            -40 -13 10 25 24 13 14 29 hvcurveto
            0 vlineto
            120 2 55 58 92 vvcurveto
            83 vlineto
            36 -9 31 -17 24 vhcurveto
            4 10 11 2 13 hhcurveto
            endchar
          </CharString>
          <CharString index="30">
            rmoveto
            61 316 63 -316 rlineto
            54 -267 rmoveto
            104 hlineto
            -143 682 rlineto
            -151 hlineto
            -145 -682 rlineto
            105 hlineto
            34 175 rlineto
            161 hlineto
            endchar
          </CharString>
          <CharString index="31">
            -36 callgsubr
            -16 callsubr
            return
          </CharString>
          <CharString index="32">
            -93 52 -50 105 33 23 3 4 19 vhcurveto
            37 callsubr
            -27 hhcurveto
            -52 -18 22 35 hvcurveto
            141 189 callsubr
            return
          </CharString>
          <CharString index="33">
            -68 callgsubr
            90 return
          </CharString>
          <CharString index="34">
            rmoveto
            -61 vlineto
            -72 36 -43 56 -31 vhcurveto
            111 -61 rlineto
            38 -20 12 -17 -37 vvcurveto
            -30 vlineto
            -38 -28 -29 -75 -56 -54 12 14 -33 vhcurveto
            -105 vlineto
            -9 23 57 -12 64 hhcurveto
            143 69 58 98 hvcurveto
            58 vlineto
            65 -28 39 -54 29 vhcurveto
            -115 65 rlineto
            -42 23 -13 18 42 vvcurveto
            33 vlineto
            39 21 25 65 56 45 -10 -12 336 callgsubr
            8 -23 -47 11 -65 hhcurveto
            -133 -62 -59 -94 hvcurveto
            return
          </CharString>
          <CharString index="35">
            rmoveto
            -30 vlineto
            -65 31 -36 47 -26 vhcurveto
            78 -43 rlineto
            48 -27 13 -12 -29 vvcurveto
            -15 vlineto
            -37 -21 -22 -83 -45 -42 8 8 -25 vhcurveto
            -98 vlineto
            -9 31 36 -6 58 hhcurveto
            135 64 53 99 hvcurveto
            26 vlineto
            63 -35 34 -50 29 vhcurveto
            -84 47 rlineto
            -39 22 -11 12 31 vvcurveto
            18 vlineto
            38 15 20 73 41 46 -9 -7 22 vhcurveto
            97 vlineto
            9 -29 -46 7 -41 hhcurveto
            -136 -51 -53 -97 hvcurveto
            return
          </CharString>
          <CharString index="36">
            -97 callgsubr
            247 hlineto
            0 10 -25 185 callgsubr
            -33 36 callsubr
            return
          </CharString>
          <CharString index="37">
            -174 vlineto
            -109 54 -58 129 27 20 2 2 16 vhcurveto
            -55 callgsubr
          </CharString>
          <CharString index="38">
            rmoveto
            -461 vlineto
            -3 -6 -30 -19 -39 hhcurveto
            -38 -18 20 38 hvcurveto
            425 -109 -443 vlineto
            -88 46 -49 89 59 40 22 6 11 vhcurveto
            -27 103 579 vlineto
            return
          </CharString>
          <CharString index="39">
            -91 46 -51 109 31 23 5 3 12 vhcurveto
            -82 callgsubr
          </CharString>
          <CharString index="40">
            100 575 return
          </CharString>
          <CharString index="41">
            -26 callsubr
            -85 45 258 callsubr
            return
          </CharString>
          <CharString index="42">
            -174 -66 callgsubr
            168 vlineto
            32 9 24 49 return
          </CharString>
          <CharString index="43">
            rmoveto
            157 -139 rlineto
            -26 vlineto
            -3 -16 -22 -6 -36 hhcurveto
            -62 -21 28 40 hvcurveto
            157 42 rmoveto
            -151 131 rlineto
            21 11 23 13 43 hhcurveto
            35 23 -6 -6 16 hvcurveto
            return
          </CharString>
          <CharString index="44">
            rmoveto
            -519 vlineto
            -45 -22 -30 -58 -57 -21 30 45 vhcurveto
            519 -108 -524 vlineto
            -98 58 105 callgsubr
            524 vlineto
            return
          </CharString>
          <CharString index="45">
            -85 520 hlineto
            -92 callgsubr
            142 -56 callsubr
            12 23 -1 -2 24 vhcurveto
            -237 -6 callsubr
            return
          </CharString>
          <CharString index="46">
            rmoveto
            -261 vlineto
            1 -146 14 -80 1 -28 -11 29 -23 73 -46 119 -115 294 rcurveline
            -113 -682 106 265 hlineto
            146 -15 78 28 vvcurveto
            11 -28 23 -74 46 -119 117 -296 rcurveline
            111 682 hlineto
            return
          </CharString>
          <CharString index="47">
            45 -50 105 105 44 50 return
          </CharString>
          <CharString index="48">
            147 callgsubr
            vlineto
            endchar
          </CharString>
          <CharString index="49">
            32 vlineto
            98 -51 39 -83 -27 -19 -5 0 vhcurveto
            -89 vlineto
            0 14 5 19 31 20 -15 -35 vhcurveto
            -25 vlineto
            -38 -13 -25 -58 -58 -13 26 38 vhcurveto
            206 vlineto
            32 11 21 50 vhcurveto
            return
          </CharString>
          <CharString index="50">
            -22 callgsubr
            32 28 7 2 8 vhcurveto
            -85 callgsubr
            return
          </CharString>
          <CharString index="51">
            vlineto
            8 -49 -56 6 -55 hhcurveto
            -128 -53 -66 -92 hvcurveto
            -194 -74 callgsubr
            184 vlineto
            42 25 25 57 return
          </CharString>
          <CharString index="52">
            rmoveto
            -41 -111 rlineto
            61 hlineto
            67 111 rlineto
            return
          </CharString>
          <CharString index="53">
            rmoveto
            -85 251 -79 vlineto
            3 -12 -32 7 -36 hhcurveto
            -109 -47 -54 -91 hvcurveto
            -155 vlineto
            -12 1 -11 1 -10 vhcurveto
            -7 -31 -32 -5 -33 hhcurveto
            -66 -36 17 56 hvcurveto
            38 vlineto
            32 135 callgsubr
            92 -39 hlineto
            -51 1 -10 21 33 vvcurveto
            43 158 callgsubr
            return
          </CharString>
          <CharString index="54">
            30 callsubr
            -113 68 -56 125 -7 vhcurveto
            -131 -94 rlineto
            -4 vlineto
            133 -13 129 111 rlineto
            93 vlineto
            -9 -27 -37 -5 -32 -2 callsubr
            return
          </CharString>
          <CharString index="55">
            -6 -6 0 1 -3 vhcurveto
            -94 vlineto
            3 -10 callgsubr
            return
          </CharString>
          <CharString index="56">
            rmoveto
            273 callsubr
            -17 24 33 hvcurveto
            319 121 vlineto
            -356 68 callsubr
            742 105 rmoveto
            85 -1126 -80 callgsubr
            384 vlineto
            6 296 callgsubr
            -37 hvcurveto
            -83 vlineto
            -91 47 -51 108 32 22 5 3 12 vhcurveto
            -118 100 400 vlineto
            0 24 8 30 142 callgsubr
            7 hhcurveto
            100 43 50 89 hvcurveto
            156 vlineto
            89 -47 55 -103 -37 -29 -10 0 vhcurveto
            84 vlineto
            endchar
          </CharString>
          <CharString index="57">
            283 callgsubr
            -30 -30 callsubr
            return
          </CharString>
          <CharString index="58">
            -85 78 -323 -28 callgsubr
            return
          </CharString>
          <CharString index="59">
            rmoveto
            -85 116 vlineto
            97 callgsubr
            -55 -24 -13 -76 vhcurveto
            -22 -127 hlineto
            -29 5 -26 9 -21 vhcurveto
            -9 -38 -43 -6 -43 hhcurveto
            -109 -38 33 81 hvcurveto
            24 19 vlineto
            122 55 49 103 hvcurveto
            57 vlineto
            94 -38 52 -103 -102 -40 -55 -94 -17 4 -22 190 callgsubr
            21 21 -4 callgsubr
            return
          </CharString>
          <CharString index="60">
            -11 callsubr
            123 59 131 callgsubr
            160 callsubr
            -34 -34 -10 -54 hhcurveto
            -68 -35 -56 callgsubr
            18 20 -3 24 hhcurveto
            return
          </CharString>
          <CharString index="61">
            -121 78 -68 143 46 54 7 11 36 vhcurveto
            94 vlineto
            -12 -34 -44 -57 callgsubr
          </CharString>
          <CharString index="62">
            -55 -19 -21 -98 -99 -19 15 53 vhcurveto
            17 vlineto
            41 18 15 51 vhcurveto
            61 89 -64 hlineto
            -51 -10 21 33 hvcurveto
            return
          </CharString>
          <CharString index="63">
            124 callgsubr
            3 hhcurveto
            86 vlineto
            -3 -13 3 -13 hhcurveto
            return
          </CharString>
          <CharString index="64">
            rmoveto
            -32 -9 -24 -51 -50 -10 24 32 vhcurveto
            317 120 vlineto
            return
          </CharString>
          <CharString index="65">
            26 -15 100 callgsubr
            return
          </CharString>
          <CharString index="66">
            -51 -1 -18 16 38 vvcurveto
            return
          </CharString>
          <CharString index="67">
            -19 -40 vvcurveto
            return
          </CharString>
          <CharString index="68">
            108 callgsubr
            -28 -104 callsubr
            return
          </CharString>
          <CharString index="69">
            rmoveto
            38 -58 rlineto
            57 hlineto
            -55 111 rlineto
            -81 hlineto
            -55 -111 rlineto
            58 hlineto
            return
          </CharString>
          <CharString index="70">
            71 callgsubr
            36 156 callsubr
            return
          </CharString>
          <CharString index="71">
            -76 32 -48 74 -14 vhcurveto
            -130 -187 rlineto
            113 hlineto
            131 191 rlineto
            1 -181 99 275 callsubr
            48 14 -47 callgsubr
            3 8 109 callgsubr
          </CharString>
          <CharString index="72">
            -12 callgsubr
            9 19 0 vhcurveto
            56 85 -253 112 callsubr
            -55 -31 callsubr
            return
          </CharString>
          <CharString index="73">
            17 20 2 19 hhcurveto
            51 11 -20 return
          </CharString>
          <CharString index="74">
            rmoveto
            33 11 22 49 50 11 -22 -33 vhcurveto
            -103 vlineto
            -33 -11 -22 -50 -49 -11 22 33 vhcurveto
            return
          </CharString>
          <CharString index="75">
            119 callgsubr
            hlineto
            endchar
          </CharString>
          <CharString index="76">
            vlineto
            -45 11 -33 7 callgsubr
            return
          </CharString>
          <CharString index="77">
            hhcurveto
            -55 184 callgsubr
            return
          </CharString>
          <CharString index="78">
            rmoveto
            -89 callsubr
            359 85 -726 -85 271 hlineto
            0 12 -19 -40 vvcurveto
            -120 vlineto
            -39 -15 -25 -49 -18 -92 callsubr
            468 69 -39 callgsubr
          </CharString>
          <CharString index="79">
            -33 106 callgsubr
            33 32 -13 25 -44 return
          </CharString>
          <CharString index="80">
            hhcurveto
            100 37 53 86 hvcurveto
            159 vlineto
            91 return
          </CharString>
          <CharString index="81">
            -7 callsubr
            -109 vlineto
            return
          </CharString>
          <CharString index="82">
            25 95 hlineto
            -41 callsubr
            199 vlineto
            36 19 26 56 30 30 -6 -2 11 173 callgsubr
            return
          </CharString>
          <CharString index="83">
            rmoveto
            -85 129 vlineto
            97 callgsubr
            -55 -24 -13 -76 vhcurveto
            -22 -127 hlineto
            -33 6 -28 12 -24 vhcurveto
            -10 -37 -41 -7 -34 hhcurveto
            -66 -36 17 56 hvcurveto
            38 vlineto
            32 135 callgsubr
            92 -39 hlineto
            -51 1 -10 21 33 vvcurveto
            43 158 callgsubr
            return
          </CharString>
          <CharString index="84">
            vlineto
            -68 callsubr
          </CharString>
          <CharString index="85">
            -105 8 callgsubr
            return
          </CharString>
          <CharString index="86">
            227 rmoveto
            -29 -11 -28 -19 -63 hhcurveto
            -83 -28 33 62 hvcurveto
            47 vlineto
            79 2 43 38 80 vvcurveto
            71 vlineto
            34 -5 21 -5 8 vhcurveto
            101 hlineto
            -414 -137 rmoveto
            137 199 3 callgsubr
            return
          </CharString>
          <CharString index="87">
            rmoveto
            -32 -103 rlineto
            -63 -93 58 -352 hlineto
            -88 41 -52 103 43 35 11 2 4 vhcurveto
            97 vlineto
            -2 -5 -26 -11 -32 hhcurveto
            -37 -17 16 36 hvcurveto
            343 109 93 -109 103 vlineto
            return
          </CharString>
          <CharString index="88">
            -43 vhcurveto
            -12 -16 2 -3 hhcurveto
            return
          </CharString>
          <CharString index="89">
            575 rmoveto
            131 -291 hlineto
            -4 -9 -23 -7 -31 hhcurveto
            -52 -16 25 32 hvcurveto
            return
          </CharString>
          <CharString index="90">
            206 -79 callgsubr
            return
          </CharString>
          <CharString index="91">
            20 32 vhcurveto
            return
          </CharString>
          <CharString index="92">
            188 76 callgsubr
            return
          </CharString>
          <CharString index="93">
            rmoveto
            -32 -7 -22 -47 -46 -7 23 31 vhcurveto
            59 vlineto
            32 7 22 46 47 7 -22 -32 vhcurveto
            return
          </CharString>
          <CharString index="94">
            -85 283 hlineto
            -107 callsubr
            return
          </CharString>
          <CharString index="95">
            rmoveto
            75 hlineto
            48 21 -22 -45 hvcurveto
            -103 vlineto
            -47 -19 -23 -50 vhcurveto
            -75 hlineto
            276 -349 rmoveto
            -108 273 rlineto
            58 21 26 51 72 vvcurveto
            113 vlineto
            96 -60 56 -108 vhcurveto
            -192 -682 108 261 61 hlineto
            96 -261 rlineto
            endchar
          </CharString>
          <CharString index="96">
            -92 callgsubr
            151 -348 -75 callgsubr
            108 -236 hlineto
            -100 67 -62 return
          </CharString>
          <CharString index="97">
            600 852 206 -33 callgsubr
            22 -5 -3 10 vhcurveto
            188 256 rmoveto
            -1072 -85 520 0 callgsubr
            140 -56 callsubr
            13 24 -1 -2 26 vhcurveto
            -210 vlineto
            return
          </CharString>
          <CharString index="98">
            -103 callgsubr
            53 37 13 25 24 hvcurveto
            return
          </CharString>
          <CharString index="99">
            rmoveto
            -102 137 102 54 callgsubr
            return
          </CharString>
          <CharString index="100">
            168 callgsubr
            -86 hvcurveto
            return
          </CharString>
          <CharString index="101">
            vlineto
            -9 callsubr
            return
          </CharString>
          <CharString index="102">
            -50 callsubr
            -103 -53 -54 -91 hvcurveto
            return
          </CharString>
          <CharString index="103">
            -32 310 callgsubr
            32 33 -14 25 -43 -45 -13 -25 -33 vhcurveto
            return
          </CharString>
          <CharString index="104">
            hhcurveto
            112 63 166 callsubr
            -8 21 0 vhcurveto
            return
          </CharString>
          <CharString index="105">
            hhcurveto
            -88 -44 31 67 hvcurveto
            return
          </CharString>
          <CharString index="106">
            rmoveto
            91 -51 44 -111 vhcurveto
            -22 hlineto
            -45 -11 19 30 hvcurveto
            19 257 callgsubr
            174 85 -561 242 callsubr
            hlineto
            230 callgsubr
            -28 vlineto
            -92 55 -39 102 vhcurveto
            22 hlineto
            51 11 -21 -30 hvcurveto
            -25 vlineto
            -45 -33 -11 -57 -50 -51 7 9 -40 vhcurveto
            -91 vlineto
            -9 41 43 -7 57 hhcurveto
            128 62 48 99 hvcurveto
            -4 198 rmoveto
            269 callgsubr
            -13 25 -44 -44 -14 -25 -33 vhcurveto
            endchar
          </CharString>
          <CharString index="107">
            -79 hlineto
            3 -13 -31 7 -36 hhcurveto
            return
          </CharString>
          <CharString index="108">
            -36 18 56 hvcurveto
            37 vlineto
            72 callsubr
            54 80 callgsubr
            return
          </CharString>
          <CharString index="109">
            rmoveto
            -33 -1 -18 -22 -33 hhcurveto
            -33 -18 22 33 -1 hvcurveto
            -63 hlineto
            -65 1 45 -46 69 hhcurveto
            68 46 46 65 1 hvcurveto
            return
          </CharString>
          <CharString index="110">
            -43 -14 15 29 hvcurveto
            10 vlineto
            29 13 15 43 vhcurveto
            return
          </CharString>
          <CharString index="111">
            -58 hlineto
            -139 -76 -58 -105 hvcurveto
            -8 101 vlineto
            58 41 21 80 vhcurveto
            40 hlineto
            109 34 -34 -77 hvcurveto
            -27 -90 -88 callsubr
            return
          </CharString>
          <CharString index="112">
            hhcurveto
            40 36 181 callgsubr
            return
          </CharString>
          <CharString index="113">
            242 callsubr
            hlineto
            -105 -52 -39 -91 hvcurveto
            -63 callgsubr
            return
          </CharString>
          <CharString index="114">
            134 vlineto
            39 return
          </CharString>
          <CharString index="115">
            vlineto
            -79 37 -40 76 -10 vhcurveto
            -121 -167 rlineto
            112 hlineto
            123 170 4 1 rlineto
            -109 99 261 -99 -74 vlineto
            -5 253 callsubr
            123 162 callgsubr
          </CharString>
          <CharString index="116">
            -49 -8 21 31 vhcurveto
            81 vlineto
            32 90 callgsubr
            return
          </CharString>
          <CharString index="117">
            -18 vhcurveto
            -37 -15 -15 -34 -50 vvcurveto
            return
          </CharString>
          <CharString index="118">
            -378 -86 callsubr
            return
          </CharString>
          <CharString index="119">
            31 callgsubr
            49 8 -23 -33 vhcurveto
            return
          </CharString>
          <CharString index="120">
            0 9 -40 callsubr
            return
          </CharString>
          <CharString index="121">
            40 48 515 rmoveto
            -357 vlineto
            -98 52 -70 128 128 53 70 98 vhcurveto
            128 vlineto
            96 -57 55 -101 -46 -27 -6 -10 -22 vhcurveto
            84 vlineto
            44 22 38 71 55 43 -9 -13 33 vhcurveto
            102 vlineto
            9 -23 -46 11 -64 hhcurveto
            -146 -53 -77 -95 hvcurveto
            253 -238 rmoveto
            -117 vlineto
            -45 -16 -30 -57 -57 -15 31 44 vhcurveto
            167 vlineto
            7 12 30 9 34 hhcurveto
            45 24 -18 -48 hvcurveto
            endchar
          </CharString>
          <CharString index="122">
            40 38 524 rmoveto
            -134 vlineto
            -97 54 -57 101 43 34 6 11 22 vhcurveto
            -88 vlineto
            -40 -23 -31 -71 -55 -49 11 13 -33 vhcurveto
            -103 vlineto
            -8 22 53 -12 64 hhcurveto
            138 62 65 95 hvcurveto
            369 vlineto
            97 -53 71 -127 -128 -54 -71 -97 vhcurveto
            254 -2 rmoveto
            -175 vlineto
            -8 -12 -30 -9 -34 hhcurveto
            -45 -25 23 47 hvcurveto
            122 vlineto
            45 17 29 57 56 16 -30 -44 vhcurveto
            endchar
          </CharString>
          <CharString index="123">
            -2 40 673 rmoveto
            -102 vlineto
            12 32 34 5 51 hhcurveto
            71 19 -27 -39 hvcurveto
            -56 vlineto
            -46 -17 -28 -55 vhcurveto
            -72 -100 73 hlineto
            55 19 -23 -46 hvcurveto
            -63 vlineto
            -41 -21 -26 -70 -56 -45 11 14 -33 vhcurveto
            -104 vlineto
            -9 23 48 -11 64 hhcurveto
            138 60 61 95 hvcurveto
            86 vlineto
            65 -27 34 -46 11 vhcurveto
            46 15 24 40 62 vvcurveto
            69 vlineto
            95 -60 60 -137 -55 -37 -5 -9 -26 vhcurveto
            endchar
          </CharString>
          <CharString index="124">
            -85 767 -82 -288 -92 73 279 callgsubr
            -130 vlineto
            -43 -26 -22 -53 -21 -26 5 6 -24 vhcurveto
            5 16 2 19 21 vvcurveto
            139 vlineto
            100 -53 53 -120 -128 42 callgsubr
            122 40 32 6 11 26 vhcurveto
            -11 35 56 -12 51 hhcurveto
            113 63 52 101 hvcurveto
            139 vlineto
            38 -9 20 0 vhcurveto
            114 -406 -67 callsubr
            return
          </CharString>
          <CharString index="125">
            34 -48 77 -13 vhcurveto
            -144 -193 rlineto
            95 callsubr
            return
          </CharString>
          <CharString index="126">
            rmoveto
            -44 -111 rlineto
            55 hlineto
            70 111 rlineto
            -183 hmoveto
            -44 -111 rlineto
            55 hlineto
            70 111 rlineto
            return
          </CharString>
          <CharString index="127">
            60 316 575 rmoveto
            -167 vlineto
            -159 167 rlineto
            159 -453 rmoveto
            -42 -14 -28 -68 -70 -13 28 42 vhcurveto
            73 vlineto
            42 13 28 70 69 13 -28 -42 vhcurveto
            -165 302 rmoveto
            139 -146 rlineto
            -7 -12 -18 -4 -26 hhcurveto
            -70 -13 27 42 hvcurveto
            348 251 rmoveto
            -531 -85 86 -165 hlineto
            -49 17 -36 33 -23 vhcurveto
            -33 -24 -17 -35 -45 vvcurveto
            -79 vlineto
            return
          </CharString>
          <CharString index="128">
            rmoveto
            121 -306 hlineto
            -3 -10 -19 -3 -23 hhcurveto
            -53 -16 24 32 hvcurveto
            450 256 rmoveto
            85 -634 -85 84 -259 vlineto
            -77 32 -48 74 -14 vhcurveto
            -129 -187 rlineto
            112 hlineto
            131 191 rlineto
            1 -181 99 405 hlineto
            5 19 28 2 24 188 callgsubr
            -4 91 7 308 callgsubr
            -28 -29 -2 -6 -22 vhcurveto
            84 vlineto
            endchar
          </CharString>
          <CharString index="129">
            112 callgsubr
            -132 101 201 callsubr
          </CharString>
          <CharString index="130">
            83 callgsubr
            3 -6 7 return
          </CharString>
          <CharString index="131">
            51 293 579 -69 callsubr
            return
          </CharString>
          <CharString index="132">
            -85 45 258 callsubr
            278 callsubr
            54 vlineto
            37 13 -5 -33 hvcurveto
            -51 vlineto
            -124 81 -53 121 45 38 7 11 26 vhcurveto
            -104 58 callsubr
          </CharString>
          <CharString index="133">
            -218 rmoveto
            -117 160 rlineto
            -91 hlineto
            102 -160 rlineto
            return
          </CharString>
          <CharString index="134">
            vlineto
            -83 callgsubr
            return
          </CharString>
          <CharString index="135">
            hlineto
            34 callgsubr
          </CharString>
          <CharString index="136">
            -36 15 -25 47 46 16 25 36 36 -16 25 -46 -47 -15 -25 -36 vhcurveto
            endchar
          </CharString>
          <CharString index="137">
            -85 271 0 callgsubr
            110 -96 -262 vlineto
            return
          </CharString>
          <CharString index="138">
            rmoveto
            -12 -34 -36 -10 -58 hhcurveto
            -67 -35 21 53 hvcurveto
            101 vlineto
            -4 13 28 -7 33 hhcurveto
            106 45 53 91 hvcurveto
            122 306 callgsubr
            88 85 -489 -85 298 279 callgsubr
            -121 331 callsubr
            -28 -22 6 4 -12 vhcurveto
            102 -100 -294 201 callgsubr
            60 51 9 10 30 vhcurveto
            endchar
          </CharString>
          <CharString index="139">
            rmoveto
            -4 120 vlineto
            100 93 51 54 30 52 13 28 rlinecurve
            100 vlineto
            -7 388 rmoveto
            -502 -85 502 hlineto
            -89 vmoveto
            -376 -92 105 hlineto
            0 9 -19 -39 vvcurveto
            -76 vlineto
            -43 -25 -22 -53 -34 -25 4 6 -28 vhcurveto
            -91 vlineto
            -7 27 23 99 callgsubr
            64 53 101 hvcurveto
            84 48 callsubr
            170 hlineto
            endchar
          </CharString>
          <CharString index="140">
            -84 callgsubr
            endchar
          </CharString>
          <CharString index="141">
            rmoveto
            67 -111 rlineto
            61 hlineto
            -41 111 rlineto
            endchar
          </CharString>
          <CharString index="142">
            -85 277 -79 -33 hlineto
            -112 -54 -54 -97 hvcurveto
            -188 vlineto
            19 callgsubr
            return
          </CharString>
          <CharString index="143">
            -25 4 7 -29 vhcurveto
            -91 vlineto
            -7 28 23 249 callgsubr
            return
          </CharString>
          <CharString index="144">
            -79 99 261 113 callsubr
            return
          </CharString>
          <CharString index="145">
            803 rmoveto
            1 8 9 1 9 hhcurveto
            30 130 callgsubr
            99 hlineto
            -102 257 callsubr
            -34 25 294 callsubr
            200 -84 rmoveto
            1 6 6 0 6 hhcurveto
            24 9 -14 -30 10 hvcurveto
            33 -100 rlineto
            87 hlineto
            261 callgsubr
            return
          </CharString>
          <CharString index="146">
            -223 -106 84 86 callgsubr
            -21 3 -15 191 callsubr
            -3 13 20 vvcurveto
            32 8 22 47 46 8 -22 -32 vhcurveto
            -81 -57 vlineto
            return
          </CharString>
          <CharString index="147">
            -7 -23 -36 -9 -42 hhcurveto
            -66 -22 20 46 hvcurveto
            259 vlineto
            45 22 20 66 40 36 -8 -6 24 330 callgsubr
            -32 6 -54 hhcurveto
            -124 -57 -55 -103 hvcurveto
            return
          </CharString>
          <CharString index="148">
            -126 93 -51 121 40 35 4 6 return
          </CharString>
          <CharString index="149">
            94 vlineto
            -12 -34 -44 83 callsubr
            64 vlineto
            -89 callsubr
            268 -83 hlineto
            3 -12 -27 4 -31 hhcurveto
            -109 -34 -51 -92 hvcurveto
            -102 vlineto
            -91 38 -49 109 34 21 4 3 11 vhcurveto
            -121 98 201 callsubr
          </CharString>
          <CharString index="150">
            89 callgsubr
            22 vhcurveto
            -96 58 callsubr
          </CharString>
          <CharString index="151">
            -85 287 -422 hlineto
            -107 callgsubr
            384 vlineto
            6 296 callgsubr
            -37 hvcurveto
            return
          </CharString>
          <CharString index="152">
            hmoveto
            139 -105 hlineto
            4 -17 -20 2 -23 hhcurveto
            -26 -32 -4 -5 -21 hvcurveto
            -99 -261 -79 callgsubr
            return
          </CharString>
          <CharString index="153">
            hlineto
            -89 -44 -51 -74 hvcurveto
            -15 vlineto
            -39 10 -28 30 -15 vhcurveto
            -32 -14 -13 -31 -43 vvcurveto
            -14 vlineto
            -83 54 -46 124 120 57 37 116 1 vhcurveto
            30 22 3 4 18 hvcurveto
            37 callsubr
            -26 hhcurveto
            -52 -18 22 35 hvcurveto
            141 vlineto
            32 12 20 51 vhcurveto
            endchar
          </CharString>
          <CharString index="154">
            -318 vlineto
            111 callsubr
            return
          </CharString>
          <CharString index="155">
            vlineto
            98 callgsubr
            return
          </CharString>
          <CharString index="156">
            3 callsubr
            168 156 return
          </CharString>
          <CharString index="157">
            38 80 vvcurveto
            75 vlineto
            37 -7 22 0 vhcurveto
            99 hlineto
            -512 224 callgsubr
            87 vlineto
            32 90 callgsubr
            return
          </CharString>
          <CharString index="158">
            rmoveto
            -32 -9 -20 -48 9 callsubr
            return
          </CharString>
          <CharString index="159">
            rmoveto
            -67 vlineto
            6 25 30 6 48 hhcurveto
            40 11 -15 -28 hvcurveto
            -23 vlineto
            -30 -2 -15 -27 -19 vhcurveto
            -72 -50 rlineto
            -45 -30 -19 -24 -58 vvcurveto
            -98 237 66 -165 29 vlineto
            35 4 6 43 30 vhcurveto
            66 48 rlineto
            37 26 15 28 46 vvcurveto
            35 vlineto
            68 -38 38 -83 -57 -35 -7 -3 -13 vhcurveto
            return
          </CharString>
          <CharString index="160">
            -85 204 callgsubr
            return
          </CharString>
          <CharString index="161">
            13 -22 -32 vhcurveto
            -145 vlineto
            -36 -12 -18 return
          </CharString>
          <CharString index="162">
            hhcurveto
            -52 -28 150 callsubr
            -258 -90 73 255 callsubr
            63 -50 108 return
          </CharString>
          <CharString index="163">
            vlineto
            26 callgsubr
          </CharString>
          <CharString index="164">
            hhcurveto
            297 callgsubr
            hvcurveto
            174 callsubr
          </CharString>
          <CharString index="165">
            119 callgsubr
            vlineto
            endchar
          </CharString>
          <CharString index="166">
            -107 -37 33 81 hvcurveto
            24 19 vlineto
            122 55 49 103 hvcurveto
            57 vlineto
            94 -38 52 -103 -102 -40 -55 -94 -9 2 -30 175 callgsubr
            -2 31 11 102 callgsubr
            87 -69 153 return
          </CharString>
          <CharString index="167">
            49 48 524 rmoveto
            -366 vlineto
            -98 52 -70 128 128 53 70 98 vhcurveto
            366 vlineto
            97 -53 71 -128 -128 -52 -71 -97 vhcurveto
            253 -4 rmoveto
            -358 vlineto
            -45 -16 -30 -57 -57 -15 30 45 vhcurveto
            358 vlineto
            45 15 29 57 57 16 -30 -44 vhcurveto
            endchar
          </CharString>
          <CharString index="168">
            -85 76 -318 hlineto
            82 callsubr
            return
          </CharString>
          <CharString index="169">
            -7 63 callgsubr
            return
          </CharString>
          <CharString index="170">
            -138 351 343 rmoveto
            -290 -343 rlineto
            120 hlineto
            72 82 56 64 27 41 15 31 rlinecurve
            -139 357 rmoveto
            107 85 -351 -85 144 -201 hlineto
            -35 -18 -21 -19 callsubr
            170 callgsubr
            return
          </CharString>
          <CharString index="171">
            38 48 431 -80 callsubr
            return
          </CharString>
          <CharString index="172">
            100 136 callgsubr
            return
          </CharString>
          <CharString index="173">
            58 315 418 rmoveto
            -153 157 rlineto
            153 hlineto
            -95 -233 rmoveto
            -50 -15 23 33 hvcurveto
            100 vlineto
            140 -145 rlineto
            -7 -9 -13 -4 -18 hhcurveto
            -287 318 rmoveto
            -85 87 -177 vlineto
            -43 14 -30 26 -20 vhcurveto
            -25 -19 -15 -30 -44 vvcurveto
            -68 vlineto
            return
          </CharString>
          <CharString index="174">
            287 733 rmoveto
            -154 -70 vlineto
            -110 -59 -62 -102 hvcurveto
            -279 vlineto
            -88 45 -52 90 59 33 26 15 16 vhcurveto
            -37 105 733 vlineto
            -108 -614 rmoveto
            -12 -14 -28 -12 -34 hhcurveto
            -38 -18 19 37 hvcurveto
            261 vlineto
            47 26 23 47 vhcurveto
            59 hlineto
            return
          </CharString>
          <CharString index="175">
            hmoveto
            135 -104 hlineto
            5 -18 -21 3 -24 hhcurveto
            -22 -30 -4 -5 -20 hvcurveto
            return
          </CharString>
          <CharString index="176">
            hhcurveto
            296 callsubr
            hvcurveto
            200 callsubr
          </CharString>
          <CharString index="177">
            243 callgsubr
            47 7 -22 -32 vhcurveto
            return
          </CharString>
          <CharString index="178">
            -151 75 callsubr
          </CharString>
          <CharString index="179">
            33 12 21 70 callgsubr
            return
          </CharString>
          <CharString index="180">
            476 rmoveto
            -50 callsubr
            return
          </CharString>
          <CharString index="181">
            vlineto
            -86 44 -50 110 229 callgsubr
            return
          </CharString>
          <CharString index="182">
            -61 callsubr
            endchar
          </CharString>
          <CharString index="183">
            94 callsubr
            vlineto
            endchar
          </CharString>
          <CharString index="184">
            187 callsubr
            21 209 callgsubr
            return
          </CharString>
          <CharString index="185">
            -52 -25 -24 4 3 -14 vhcurveto
            61 -97 -233 97 85 vlineto
            -3 13 29 -4 36 hhcurveto
            return
          </CharString>
          <CharString index="186">
            43 322 callgsubr
            13 159 callsubr
            hvcurveto
            return
          </CharString>
          <CharString index="187">
            -109 vlineto
            -46 13 -33 27 -20 vhcurveto
            -22 -18 -14 -26 -40 vvcurveto
            -48 vlineto
            -93 50 -46 112 113 51 49 93 vhcurveto
            264 -98 -78 vlineto
            -4 -12 -26 -4 -27 hhcurveto
            -52 -15 20 33 hvcurveto
            104 162 callgsubr
          </CharString>
          <CharString index="188">
            -25 callsubr
            89 return
          </CharString>
          <CharString index="189">
            111 callsubr
            318 return
          </CharString>
          <CharString index="190">
            -8 -51 -2 callsubr
            return
          </CharString>
          <CharString index="191">
            rmoveto
            -44 -25 -15 -60 329 callsubr
            -99 -3 hlineto
            -101 64 -41 120 120 63 41 101 vhcurveto
            3 vlineto
            endchar
          </CharString>
          <CharString index="192">
            vlineto
            57 callgsubr
          </CharString>
          <CharString index="193">
            -85 77 -311 hlineto
            -92 47 -51 113 return
          </CharString>
          <CharString index="194">
            112 callsubr
            -57 -31 callsubr
            -51 vlineto
            -97 67 -56 return
          </CharString>
          <CharString index="195">
            166 callgsubr
            258 callgsubr
            return
          </CharString>
          <CharString index="196">
            -55 -98 vhcurveto
            -139 vlineto
            -97 return
          </CharString>
          <CharString index="197">
            hlineto
            -9 callsubr
            139 333 callgsubr
            90 hlineto
            endchar
          </CharString>
          <CharString index="198">
            vlineto
            -45 callsubr
            return
          </CharString>
          <CharString index="199">
            rmoveto
            -34 -9 -25 -50 -50 -11 25 34 vhcurveto
            203 vlineto
            33 11 26 50 49 10 -26 -33 vhcurveto
            -219 -204 rmoveto
            -33 -11 -25 -49 -50 -9 25 33 vhcurveto
            204 vlineto
            33 9 26 50 49 11 -26 -33 vhcurveto
            return
          </CharString>
          <CharString index="200">
            161 callsubr
            2 hlineto
            -3 -21 -4 -49 -62 vvcurveto
            -86 242 callgsubr
          </CharString>
          <CharString index="201">
            41 callsubr
            23 vhcurveto
            -96 65 callsubr
            return
          </CharString>
          <CharString index="202">
            115 hlineto
            149 201 rlineto
            -201 -67 callsubr
            89 return
          </CharString>
          <CharString index="203">
            -20 -49 -48 186 callgsubr
            48 vhcurveto
            return
          </CharString>
          <CharString index="204">
            -32 -9 -20 -48 -49 return
          </CharString>
          <CharString index="205">
            -40 callsubr
            -58 vlineto
            return
          </CharString>
          <CharString index="206">
            281 callsubr
            -483 242 callsubr
            vlineto
            146 callsubr
            return
          </CharString>
          <CharString index="207">
            hhcurveto
            60 131 callgsubr
            hvcurveto
            94 vlineto
            -12 -34 145 callsubr
          </CharString>
          <CharString index="208">
            136 249 rmoveto
            -89 callsubr
            return
          </CharString>
          <CharString index="209">
            -50 -11 18 30 hvcurveto
            6 vlineto
            27 1 13 16 49 hhcurveto
            157 158 return
          </CharString>
          <CharString index="210">
            129 callsubr
            -84 vlineto
            124 callsubr
            return
          </CharString>
          <CharString index="211">
            -10 rmoveto
            -43 171 callgsubr
            43 return
          </CharString>
          <CharString index="212">
            65 -122 126 callgsubr
            vhcurveto
            return
          </CharString>
          <CharString index="213">
            -5 -5 10 vhcurveto
            -384 return
          </CharString>
          <CharString index="214">
            -20 -26 -3 -5 -17 return
          </CharString>
          <CharString index="215">
            22 vlineto
            -45 callgsubr
            endchar
          </CharString>
          <CharString index="216">
            189 callgsubr
            vlineto
            endchar
          </CharString>
          <CharString index="217">
            rmoveto
            -365 -95 128 -587 109 587 128 hlineto
            endchar
          </CharString>
          <CharString index="218">
            -91 49 134 callsubr
            49 55 91 vhcurveto
            return
          </CharString>
          <CharString index="219">
            -85 95 158 callsubr
            return
          </CharString>
          <CharString index="220">
            -99 -93 vlineto
            -4 -19 -16 -3 return
          </CharString>
          <CharString index="221">
            159 callsubr
            hvcurveto
            return
          </CharString>
          <CharString index="222">
            -32 callgsubr
            endchar
          </CharString>
          <CharString index="223">
            -6 259 callsubr
            -65 callgsubr
            13 22 50 vhcurveto
            return
          </CharString>
          <CharString index="224">
            91 vlineto
            -2 -16 return
          </CharString>
          <CharString index="225">
            0 -11 -20 -39 vvcurveto
            -136 vlineto
            96 callgsubr
            return
          </CharString>
          <CharString index="226">
            -126 69 -50 134 59 37 5 8 38 vhcurveto
            90 vlineto
            -7 -40 -34 -5 -60 hhcurveto
            -68 -37 24 62 hvcurveto
            113 vlineto
            -5 19 28 -3 23 hhcurveto
            50 38 16 30 19 hvcurveto
            return
          </CharString>
          <CharString index="227">
            rmoveto
            -11 callgsubr
            return
          </CharString>
          <CharString index="228">
            91 110 -104 vlineto
            -264 -300 rlineto
            121 hlineto
            76 85 51 55 23 41 5 17 rlinecurve
            1 hlineto
            -4 -33 -3 -54 -46 vvcurveto
            -18 94 580 89 85 vlineto
            endchar
          </CharString>
          <CharString index="229">
            129 16 rmoveto
            -44 -13 -25 -33 -32 13 316 callgsubr
            return
          </CharString>
          <CharString index="230">
            96 61 vlineto
            47 24 26 71 37 334 callsubr
            -70 vlineto
            return
          </CharString>
          <CharString index="231">
            1 9 9 1 8 hhcurveto
            31 return
          </CharString>
          <CharString index="232">
            29 51 hvcurveto
            84 vlineto
            -4 return
          </CharString>
          <CharString index="233">
            0 -7 -20 -39 vvcurveto
            return
          </CharString>
          <CharString index="234">
            rmoveto
            36 11 19 26 28 -11 18 -36 -36 -12 -18 -28 -26 12 -19 36 hvcurveto
            -152 hmoveto
            36 12 19 26 28 -12 18 -36 -36 -11 -18 -28 -26 11 -19 36 hvcurveto
            return
          </CharString>
          <CharString index="235">
            vlineto
            92 -45 50 -104 -105 -47 -50 -92 vhcurveto
            return
          </CharString>
          <CharString index="236">
            188 callsubr
            -12 hvcurveto
            return
          </CharString>
          <CharString index="237">
            -39 vvcurveto
            -134 vlineto
            -43 -25 -23 return
          </CharString>
          <CharString index="238">
            141 callsubr
            122 return
          </CharString>
          <CharString index="239">
            vlineto
            -96 38 -44 114 26 21 2 5 19 vhcurveto
            -73 16 56 -49 103 hhcurveto
            135 callsubr
            hvcurveto
            207 callsubr
            return
          </CharString>
          <CharString index="240">
            -37 -15 -15 -34 -50 vvcurveto
            -22 vlineto
            -88 54 -54 98 -9 vhcurveto
            -140 -146 rlineto
            129 hlineto
            149 156 rlineto
            1 -107 263 callgsubr
          </CharString>
          <CharString index="241">
            -55 111 111 return
          </CharString>
          <CharString index="242">
            57 40 8 12 34 return
          </CharString>
          <CharString index="243">
            vlineto
            -33 -11 -22 -50 -49 -11 22 33 vhcurveto
            218 237 rmoveto
            0 -2 15 8 vvcurveto
            32 12 26 50 51 12 -24 -32 vhcurveto
            -128 331 callsubr
            return
          </CharString>
          <CharString index="244">
            vlineto
            -95 63 -56 115 -3 vhcurveto
            -150 -133 rlineto
            125 hlineto
            149 138 rlineto
            95 vlineto
            -6 -34 -30 -4 -37 hhcurveto
            -64 -37 18 56 hvcurveto
            endchar
          </CharString>
          <CharString index="245">
            174 callgsubr
            85 vlineto
            endchar
          </CharString>
          <CharString index="246">
            hvcurveto
            139 -276 -32 callsubr
          </CharString>
          <CharString index="247">
            -92 105 hlineto
            -97 callsubr
            return
          </CharString>
          <CharString index="248">
            vlineto
            -158 126 -70 callgsubr
            return
          </CharString>
          <CharString index="249">
            196 634 -196 hlineto
            236 -185 rmoveto
            196 185 -196 hlineto
            return
          </CharString>
          <CharString index="250">
            -9 -32 -46 -6 -44 hhcurveto
            -71 -21 25 40 hvcurveto
            return
          </CharString>
          <CharString index="251">
            vlineto
            -90 37 -50 106 vhcurveto
            25 95 hlineto
            -51 -1 -17 16 38 vvcurveto
            199 vlineto
            36 18 26 56 30 31 -6 -2 10 173 callgsubr
            90 return
          </CharString>
          <CharString index="252">
            -35 15 callgsubr
          </CharString>
          <CharString index="253">
            230 callgsubr
            177 callgsubr
            return
          </CharString>
          <CharString index="254">
            -85 342 -90 vlineto
            4 -13 -33 8 -50 hhcurveto
            -126 -53 -60 -101 hvcurveto
            -66 123 callsubr
            return
          </CharString>
          <CharString index="255">
            -134 88 -69 156 85 67 20 15 44 vhcurveto
            -20 36 46 -9 51 hhcurveto
            40 35 181 callgsubr
            90 85 vlineto
            endchar
          </CharString>
          <CharString index="256">
            rlineto
            24 9 22 14 45 hhcurveto
            20 15 -3 0 hvcurveto
            84 vlineto
            0 -19 4 -23 return
          </CharString>
          <CharString index="257">
            19 42 184 callsubr
            82 86 return
          </CharString>
          <CharString index="258">
            41 42 5 -21 -35 vhcurveto
            -43 vlineto
            -61 -28 -17 -69 vhcurveto
            return
          </CharString>
          <CharString index="259">
            rmoveto
            -40 -25 -18 -28 -24 vhcurveto
            -29 24 -25 18 40 vvcurveto
            return
          </CharString>
          <CharString index="260">
            22 -49 hhcurveto
            -11 -10 -1 -1 -10 hvcurveto
            return
          </CharString>
          <CharString index="261">
            -33 310 callsubr
            33 32 return
          </CharString>
          <CharString index="262">
            49 -115 -114 -38 -49 -91 vhcurveto
            return
          </CharString>
          <CharString index="263">
            212 callgsubr
            -67 callsubr
            return
          </CharString>
          <CharString index="264">
            140 callgsubr
            308 return
          </CharString>
          <CharString index="265">
            hlineto
            126 callsubr
            return
          </CharString>
          <CharString index="266">
            25 32 33 -13 25 -44 return
          </CharString>
          <CharString index="267">
            vhcurveto
            94 vlineto
            -12 return
          </CharString>
          <CharString index="268">
            123 callsubr
            -279 -297 276 callsubr
            34 36 26 35 10 22 rlinecurve
            return
          </CharString>
          <CharString index="269">
            hhcurveto
            -192 hlineto
            -22 callsubr
            -112 27 callsubr
            107 vlineto
            33 -8 19 -1 4 vhcurveto
            57 hlineto
            return
          </CharString>
          <CharString index="270">
            rmoveto
            121 -318 hlineto
            -3 -11 -19 -4 -23 hhcurveto
            -52 -16 25 32 hvcurveto
            return
          </CharString>
          <CharString index="271">
            -3 callsubr
            113 return
          </CharString>
          <CharString index="272">
            vlineto
            331 callgsubr
            7 -22 -32 vhcurveto
            return
          </CharString>
          <CharString index="273">
            52 102 hvcurveto
            142 vlineto
            38 return
          </CharString>
          <CharString index="274">
            -352 98 575 return
          </CharString>
          <CharString index="275">
            rlineto
            64 -21 -22 22 -49 hhcurveto
            -11 -11 -1 -1 -9 hvcurveto
            -84 vlineto
            1 5 7 0 5 hhcurveto
            23 9 -15 -29 12 hvcurveto
            38 -100 rlineto
            return
          </CharString>
          <CharString index="276">
            -32 13 -25 44 44 14 228 callsubr
            return
          </CharString>
          <CharString index="277">
            rmoveto
            308 callsubr
            -117 160 rlineto
            return
          </CharString>
          <CharString index="278">
            rmoveto
            -61 243 61 vlineto
            return
          </CharString>
          <CharString index="279">
            3 -12 -28 7 -43 hhcurveto
            return
          </CharString>
          <CharString index="280">
            vlineto
            -38 -16 -11 -51 vhcurveto
            -55 -72 318 callgsubr
            31 vhcurveto
            -62 100 201 callsubr
          </CharString>
          <CharString index="281">
            -71 44 callgsubr
          </CharString>
          <CharString index="282">
            -7 callgsubr
            379 vlineto
            7 21 28 2 23 hhcurveto
            52 15 -20 -36 hvcurveto
            return
          </CharString>
          <CharString index="283">
            -85 267 -112 -55 hlineto
            -110 -44 -50 -85 hvcurveto
            -61 vlineto
            -85 44 -53 92 callgsubr
            43 54 85 vhcurveto
            110 return
          </CharString>
          <CharString index="284">
            -6 29 682 rmoveto
            -93 230 vlineto
            104 callgsubr
            89 vlineto
            return
          </CharString>
          <CharString index="285">
            -241 vlineto
            194 callsubr
            return
          </CharString>
          <CharString index="286">
            214 callgsubr
            2 -6 8 -26 -35 vvcurveto
            return
          </CharString>
          <CharString index="287">
            -66 -21 248 callgsubr
            return
          </CharString>
          <CharString index="288">
            -110 136 682 rmoveto
            -123 -91 rlineto
            -120 vlineto
            118 87 rlineto
            -558 109 682 vlineto
            endchar
          </CharString>
          <CharString index="289">
            vvcurveto
            193 callsubr
          </CharString>
          <CharString index="290">
            199 callgsubr
            89 return
          </CharString>
          <CharString index="291">
            hvcurveto
            119 vlineto
            192 callsubr
            return
          </CharString>
          <CharString index="292">
            -33 310 callgsubr
            33 32 return
          </CharString>
          <CharString index="293">
            309 callsubr
            86 return
          </CharString>
          <CharString index="294">
            22 39 hvcurveto
            152 vlineto
            36 return
          </CharString>
          <CharString index="295">
            -56 hhcurveto
            -15 -11 -1 -1 return
          </CharString>
          <CharString index="296">
            vlineto
            32 12 20 52 vhcurveto
            return
          </CharString>
          <CharString index="297">
            41 21 25 55 vhcurveto
            return
          </CharString>
          <CharString index="298">
            0 vhcurveto
            100 hlineto
            0 return
          </CharString>
          <CharString index="299">
            51 10 22 0 vhcurveto
            return
          </CharString>
          <CharString index="300">
            -109 56 callsubr
          </CharString>
          <CharString index="301">
            -36 -18 -21 -19 callsubr
            -95 vlineto
            -1 3 28 -2 14 hhcurveto
            94 53 52 94 hvcurveto
            248 return
          </CharString>
          <CharString index="302">
            505 rmoveto
            -121 -183 121 -183 rlineto
            109 hlineto
            -122 183 122 183 rlineto
            return
          </CharString>
          <CharString index="303">
            -31 -4 -38 hhcurveto
            -83 -36 32 63 hvcurveto
            47 vlineto
            78 2 43 38 80 vvcurveto
            75 vlineto
            37 -7 22 0 vhcurveto
            return
          </CharString>
          <CharString index="304">
            vlineto
            -85 44 258 callsubr
            45 51 85 vhcurveto
            158 103 -352 98 201 callsubr
          </CharString>
          <CharString index="305">
            rmoveto
            -76 callsubr
            return
          </CharString>
          <CharString index="306">
            rmoveto
            97 callsubr
            -9 -16 callsubr
            return
          </CharString>
          <CharString index="307">
            -71 100 201 callsubr
          </CharString>
          <CharString index="308">
            575 89 vlineto
            endchar
          </CharString>
          <CharString index="309">
            355 407 rmoveto
            320 callgsubr
            vlineto
            -111 -53 -40 -102 hvcurveto
            return
          </CharString>
          <CharString index="310">
            225 callgsubr
            -98 52 -55 345 callsubr
            50 52 98 vhcurveto
            32 vlineto
            98 return
          </CharString>
          <CharString index="311">
            235 271 rmoveto
            -32 -8 -23 -48 -49 -7 22 32 vhcurveto
            55 vlineto
            32 8 21 49 vhcurveto
            55 hlineto
            return
          </CharString>
          <CharString index="312">
            122 -183 -122 -183 rlineto
            109 hlineto
            121 183 -121 183 rlineto
            endchar
          </CharString>
          <CharString index="313">
            -184 58 733 rmoveto
            -733 108 733 vlineto
            return
          </CharString>
          <CharString index="314">
            93 vlineto
            -13 -36 -31 -9 -51 hhcurveto
            -67 -31 29 51 hvcurveto
            return
          </CharString>
          <CharString index="315">
            5 0 5 5 270 callsubr
            return
          </CharString>
          <CharString index="316">
            vlineto
            -14 callgsubr
            return
          </CharString>
          <CharString index="317">
            -308 hlineto
            -92 45 -60 129 return
          </CharString>
          <CharString index="318">
            76 -37 48 -76 13 vhcurveto
            71 return
          </CharString>
          <CharString index="319">
            rmoveto
            170 90 85 return
          </CharString>
          <CharString index="320">
            144 -241 return
          </CharString>
          <CharString index="321">
            vlineto
            -378 vmoveto
            -95 callgsubr
            return
          </CharString>
          <CharString index="322">
            vhcurveto
            29 hlineto
            46 14 -14 -29 hvcurveto
            -11 vlineto
            -42 -29 -9 -61 -49 -77 8 11 -47 vhcurveto
            -83 vlineto
            return
          </CharString>
          <CharString index="323">
            hlineto
            -378 vmoveto
            -95 callgsubr
            return
          </CharString>
          <CharString index="324">
            vlineto
            128 callgsubr
          </CharString>
          <CharString index="325">
            hvcurveto
            -148 vlineto
            return
          </CharString>
          <CharString index="326">
            155 rmoveto
            -7 -31 -33 -4 -40 305 callsubr
            2 vlineto
            78 43 36 80 hvcurveto
            return
          </CharString>
          <CharString index="327">
            hhcurveto
            -83 -37 32 63 hvcurveto
            47 vlineto
            79 2 42 38 80 vvcurveto
            75 vlineto
            37 -7 22 0 vhcurveto
            return
          </CharString>
          <CharString index="328">
            hlineto
            -54 callgsubr
          </CharString>
          <CharString index="329">
            -366 -682 rlineto
            73 hlineto
            366 682 rlineto
            return
          </CharString>
          <CharString index="330">
            50 14 -22 -33 hvcurveto
            -30 vlineto
            -33 -16 -22 -52 -25 return
          </CharString>
          <CharString index="331">
            0 9 272 callgsubr
            -53 return
          </CharString>
          <CharString index="332">
            4 7 22 vhcurveto
            -69 -67 callsubr
            89 return
          </CharString>
          <CharString index="333">
            12 1 1 6 hvcurveto
            93 return
          </CharString>
          <CharString index="334">
            9 12 4 17 33 vvcurveto
            return
          </CharString>
          <CharString index="335">
            25 32 33 -14 25 -44 return
          </CharString>
          <CharString index="336">
            5 -14 -29 8 -40 hhcurveto
            return
          </CharString>
          <CharString index="337">
            411 vlineto
            3 11 return
          </CharString>
          <CharString index="338">
            -400 -67 callsubr
            return
          </CharString>
          <CharString index="339">
            hlineto
            55 -123 rlineto
            104 hlineto
            -66 131 rlineto
            86 18 32 48 88 vvcurveto
            187 vlineto
            return
          </CharString>
          <CharString index="340">
            -2 -8 -22 116 callsubr
            7 return
          </CharString>
          <CharString index="341">
            -35 -16 -23 -55 -55 -16 23 35 vhcurveto
            95 vlineto
            35 16 23 55 55 16 -23 -35 vhcurveto
            return
          </CharString>
          <CharString index="342">
            -99 hlineto
            -50 callsubr
            return
          </CharString>
          <CharString index="343">
            79 vlineto
            45 -16 35 -34 24 vhcurveto
            34 23 16 36 49 vvcurveto
            165 85 vlineto
            endchar
          </CharString>
          <CharString index="344">
            189 85 rmoveto
            return
          </CharString>
          <CharString index="345">
            -20 -39 vvcurveto
            -55 -31 callsubr
            -54 vlineto
            return
          </CharString>
          <CharString index="346">
            hhcurveto
            109 44 51 85 hvcurveto
            305 callgsubr
          </CharString>
          <CharString index="347">
            hhcurveto
            -113 295 callsubr
            return
          </CharString>
          <CharString index="348">
            -45 hhcurveto
            -61 -15 25 38 hvcurveto
            return
          </CharString>
          <CharString index="349">
            -85 287 -71 -55 return
          </CharString>
          <CharString index="350">
            -100 66 -62 123 return
          </CharString>
          <CharString index="351">
            rmoveto
            -44 -14 -25 -33 -32 14 316 callgsubr
            return
          </CharString>
          <CharString index="352">
            rmoveto
            -35 15 -25 47 46 16 25 35 37 -16 25 -46 -47 -15 -25 -37 vhcurveto
            return
          </CharString>
          <CharString index="353">
            116 109 callsubr
          </CharString>
          <CharString index="354">
            20 336 callgsubr
            33 return
          </CharString>
          <CharString index="355">
            168 93 85 return
          </CharString>
          <CharString index="356">
            -66 26 -44 52 -20 vhcurveto
            -73 -1 -21 -14 -72 hhcurveto
            -61 -32 11 47 hvcurveto
            return
          </CharString>
          <CharString index="357">
            -44 -12 17 30 hvcurveto
            4 vlineto
            30 13 16 44 vhcurveto
            160 158 103 return
          </CharString>
          <CharString index="358">
            rlineto
            104 hlineto
            53 118 rlineto
            3 hlineto
            7 hlineto
            53 -118 rlineto
            104 hlineto
            return
          </CharString>
          <CharString index="359">
            hlineto
            49 callsubr
            return
          </CharString>
          <CharString index="360">
            -19 -16 -3 -26 hhcurveto
            -52 -18 22 35 hvcurveto
            return
          </CharString>
          <CharString index="361">
            rmoveto
            -36 callgsubr
            21 31 vhcurveto
            return
          </CharString>
          <CharString index="362">
            159 callgsubr
            -122 vlineto
            -98 return
          </CharString>
          <CharString index="363">
            324 callgsubr
            21 31 vhcurveto
            return
          </CharString>
          <CharString index="364">
            147 rlineto
            57 -41 return
          </CharString>
          <CharString index="365">
            -51 92 callgsubr
            return
          </CharString>
          <CharString index="366">
            -27 hhcurveto
            -50 -13 return
          </CharString>
          <CharString index="367">
            266 callgsubr
            4 return
          </CharString>
          <CharString index="368">
            -91 45 -54 106 51 38 17 30 23 vhcurveto
            -30 23 37 -17 51 hhcurveto
            return
          </CharString>
          <CharString index="369">
            64 -21 -22 153 callsubr
            -84 vlineto
            1 6 return
          </CharString>
          <CharString index="370">
            32 7 22 47 return
          </CharString>
          <CharString index="371">
            50 91 vhcurveto
            129 328 callgsubr
            36 hlineto
            44 return
          </CharString>
          <CharString index="372">
            rmoveto
            -82 -61 rlineto
            -82 vlineto
            86 66 rlineto
            -374 72 451 vlineto
            return
          </CharString>
          <CharString index="373">
            91 vlineto
            88 62 49 99 hvcurveto
            304 vlineto
            87 -54 42 -76 -47 return
          </CharString>
          <CharString index="374">
            hlineto
            97 callgsubr
            -37 -11 -18 -31 -8 vhcurveto
            56 return
          </CharString>
          <CharString index="375">
            hhcurveto
            40 35 4 6 23 hvcurveto
            -96 100 201 callsubr
          </CharString>
          <CharString index="376">
            -24 -38 -52 -93 -48 vvcurveto
            -28 15 -16 return
          </CharString>
          <CharString index="377">
            vvcurveto
            129 callgsubr
            return
          </CharString>
          <CharString index="378">
            -57 -88 57 -491 109 491 return
          </CharString>
          <CharString index="379">
            -79 -33 hlineto
            -105 -54 -47 -86 -6 hvcurveto
            return
          </CharString>
          <CharString index="380">
            -3 -10 -19 -4 -23 hhcurveto
            -52 return
          </CharString>
          <CharString index="381">
            226 callsubr
            vlineto
            return
          </CharString>
          <CharString index="382">
            400 hlineto
            0 24 8 31 return
          </CharString>
          <CharString index="383">
            rlineto
            127 hlineto
            92 100 return
          </CharString>
          <CharString index="384">
            11 -19 36 36 12 19 return
          </CharString>
          <CharString index="385">
            44 51 85 vhcurveto
            158 return
          </CharString>
          <CharString index="386">
            hlineto
            334 callgsubr
            return
          </CharString>
          <CharString index="387">
            rmoveto
            -32 -8 -20 -49 return
          </CharString>
          <CharString index="388">
            rmoveto
            158 96 85 return
          </CharString>
          <CharString index="389">
            -13 -25 -32 vhcurveto
            return
          </CharString>
          <CharString index="390">
            vlineto
            32 10 20 43 vhcurveto
            44 hlineto
            311 callgsubr
            return
          </CharString>
          <CharString index="391">
            327 callsubr
            -37 hhcurveto
            -84 -36 32 63 hvcurveto
            return
          </CharString>
          <CharString index="392">
            -85 190 321 callgsubr
            return
          </CharString>
          <CharString index="393">
            vhcurveto
            117 callgsubr
            -47 hhcurveto
            -63 -34 20 52 hvcurveto
            return
          </CharString>
          <CharString index="394">
            -22 5 8 -34 vhcurveto
            -67 vlineto
            -6 20 29 -6 57 hhcurveto
            83 return
          </CharString>
          <CharString index="395">
            hlineto
            11 22 27 9 29 hhcurveto
            34 19 -16 -34 hvcurveto
            endchar
          </CharString>
          <CharString index="396">
            129 vlineto
            33 return
          </CharString>
          <CharString index="397">
            -149 320 -18 callgsubr
            -356 -85 356 hlineto
            return
          </CharString>
          <CharString index="398">
            -92 49 -54 111 111 49 54 92 vhcurveto
            217 return
          </CharString>
          <CharString index="399">
            vlineto
            -46 11 -32 7 callgsubr
            return
          </CharString>
          <CharString index="400">
            516 rmoveto
            37 -7 22 0 vhcurveto
            99 -387 hlineto
            -5 return
          </CharString>
          <CharString index="401">
            -56 hhcurveto
            -14 -12 345 callgsubr
            return
          </CharString>
          <CharString index="402">
            -48 -54 -91 hvcurveto
            -155 vlineto
            -93 return
          </CharString>
          <CharString index="403">
            37 30 7 3 13 return
          </CharString>
          <CharString index="404">
            188 rmoveto
            -5 return
          </CharString>
          <CharString index="405">
            hvcurveto
            -67 97 61 vlineto
            47 23 27 71 38 34 -8 return
          </CharString>
          <CharString index="406">
            -39 -16 -29 -55 -54 -16 30 39 vhcurveto
            146 vlineto
            return
          </CharString>
          <CharString index="407">
            -79 -33 vlineto
            -112 -54 -54 -97 hvcurveto
            -188 vlineto
            return
          </CharString>
          <CharString index="408">
            -153 rmoveto
            -16 callgsubr
            return
          </CharString>
          <CharString index="409">
            43 12 24 31 31 -12 23 -43 -42 -12 -23 -31 return
          </CharString>
          <CharString index="410">
            255 callgsubr
            -36 hvcurveto
            return
          </CharString>
          <CharString index="411">
            vlineto
            5 17 24 2 19 hhcurveto
            51 11 -20 -36 hvcurveto
            return
          </CharString>
          <CharString index="412">
            hhcurveto
            -83 -26 28 54 hvcurveto
            return
          </CharString>
          <CharString index="413">
            hlineto
            43 10 -17 -32 hvcurveto
            return
          </CharString>
          <CharString index="414">
            vlineto
            0 -11 -20 -39 vvcurveto
            return
          </CharString>
          <CharString index="415">
            102 -160 rlineto
            106 hlineto
            return
          </CharString>
          <CharString index="416">
            192 callsubr
            82 return
          </CharString>
          <CharString index="417">
            289 callgsubr
            14 25 return
          </CharString>
          <CharString index="418">
            -41 -16 -30 -54 vhcurveto
            -87 return
          </CharString>
          <CharString index="419">
            -48 -158 hvcurveto
            endchar
          </CharString>
          <CharString index="420">
            rmoveto
            -41 111 rlineto
            -87 hlineto
            67 -111 rlineto
            return
          </CharString>
          <CharString index="421">
            373 -18 callgsubr
            -405 -85 405 hlineto
            return
          </CharString>
          <CharString index="422">
            -16 -21 -51 -21 -20 3 4 -13 vhcurveto
            60 -98 return
          </CharString>
          <CharString index="423">
            20 vvcurveto
            36 7 22 41 42 5 -21 -35 vhcurveto
            return
          </CharString>
          <CharString index="424">
            -21 -29 -20 hvcurveto
            26 -16 100 callgsubr
            -103 return
          </CharString>
          <CharString index="425">
            vvcurveto
            342 callgsubr
            return
          </CharString>
          <CharString index="426">
            340 callgsubr
            3 return
          </CharString>
          <CharString index="427">
            -90 -88 callsubr
            -90 return
          </CharString>
          <CharString index="428">
            -137 vlineto
            -438 vmoveto
            98 575 90 85 return
          </CharString>
          <CharString index="429">
            -13 -27 -63 -64 -13 28 36 vhcurveto
            137 vlineto
            return
          </CharString>
          <CharString index="430">
            407 213 callgsubr
            return
          </CharString>
          <CharString index="431">
            hlineto
            33 15 -14 -15 7 hvcurveto
            return
          </CharString>
          <CharString index="432">
            hhcurveto
            -22 -26 -4 -4 -14 hvcurveto
            return
          </CharString>
          <CharString index="433">
            hlineto
            307 callgsubr
            return
          </CharString>
          <CharString index="434">
            297 callsubr
            -25 -31 -4 return
          </CharString>
          <CharString index="435">
            rrcurveto
            -37 -15 -15 -34 -50 vvcurveto
            return
          </CharString>
          <CharString index="436">
            -61 -24 15 44 vhcurveto
            return
          </CharString>
          <CharString index="437">
            rmoveto
            156 96 85 return
          </CharString>
          <CharString index="438">
            vlineto
            -32 -12 -24 -51 return
          </CharString>
          <CharString index="439">
            41 374 rmoveto
            -92 return
          </CharString>
          <CharString index="440">
            297 callsubr
            -24 return
          </CharString>
          <CharString index="441">
            34 -8 -4 13 vhcurveto
            return
          </CharString>
          <CharString index="442">
            vlineto
            34 13 22 return
          </CharString>
          <CharString index="443">
            hlineto
            -182 -152 110 -16 59 53 return
          </CharString>
          <CharString index="444">
            hlineto
            75 callgsubr
            return
          </CharString>
          <CharString index="445">
            vlineto
            -16 callgsubr
            return
          </CharString>
          <CharString index="446">
            124 callsubr
            21 -12 -29 return
          </CharString>
          <CharString index="447">
            vvcurveto
            32 12 26 51 50 12 -24 -32 vhcurveto
            return
          </CharString>
          <CharString index="448">
            25 26 -18 19 -26 -25 -19 -19 -26 vhcurveto
            return
          </CharString>
          <CharString index="449">
            vlineto
            -273 -297 rlineto
            126 hlineto
            105 return
          </CharString>
          <CharString index="450">
            rmoveto
            185 callsubr
            return
          </CharString>
          <CharString index="451">
            -45 -163 hvcurveto
            endchar
          </CharString>
          <CharString index="452">
            118 117 return
          </CharString>
        <CharString name=".notdef">
          345 168 hmoveto
          417 701 -417 hlineto
          70 -65 rmoveto
          278 -571 -278 hlineto
          endchar
        </CharString>
        <CharString name="A">
          54 168 267 -77 callsubr
        </CharString>
        <CharString name="AE">
          282 218 267 rmoveto
          137 343 rlineto
          -343 vlineto
          313 320 rmoveto
          95 -378 vlineto
          -286 -682 rlineto
          107 hlineto
          70 175 rlineto
          174 -175 313 94 -211 203 183 95 -183 195 hlineto
          endchar
        </CharString>
        <CharString name="Aacute">
          54 325 833 rmoveto
          -87 hlineto
          -41 -111 rlineto
          61 hlineto
          -90 -455 -77 callsubr
        </CharString>
        <CharString name="Abreve">
          54 281 833 2 callsubr
          -176 -566 -77 callsubr
        </CharString>
        <CharString name="Acircumflex">
          54 234 780 -38 callsubr
          -28 -455 -77 callsubr
        </CharString>
        <CharString name="Adieresis">
          54 305 731 127 callsubr
          15 -464 -77 callsubr
        </CharString>
        <CharString name="Agrave">
          54 258 722 313 callsubr
          -29 -455 -77 callsubr
        </CharString>
        <CharString name="Amacron">
          54 350 808 rmoveto
          -243 -61 243 hlineto
          -182 -480 -77 callsubr
        </CharString>
        <CharString name="Aogonek">
          54 168 267 rmoveto
          61 316 63 -316 rlineto
          15 415 rmoveto
          -151 hlineto
          -145 -682 rlineto
          105 hlineto
          34 175 rlineto
          161 hlineto
          35 -175 rlineto
          60 hlineto
          183 callgsubr
        </CharString>
        <CharString name="Aring">
          54 229 809 rmoveto
          20 12 -13 -19 -20 -12 -13 -20 -20 -12 13 20 19 12 13 20 hvcurveto
          -108 vmoveto
          50 27 34 42 42 -27 33 -50 -49 -28 -33 -42 -42 28 -34 49 hvcurveto
          -61 -434 -77 callsubr
        </CharString>
        <CharString name="Atilde">
          54 160 734 rmoveto
          23 6 11 16 vhcurveto
          29 30 -39 47 hhcurveto
          51 25 34 54 1 hvcurveto
          10 -64 -8 vlineto
          -22 -5 -11 -16 vhcurveto
          -27 -30 39 -49 hhcurveto
          -53 -24 -37 -53 -1 hvcurveto
          -8 64 vlineto
          8 -460 -77 callsubr
        </CharString>
        <CharString name="B">
          72 325 161 rmoveto
          -45 -22 -24 -51 vhcurveto
          -86 203 86 hlineto
          51 22 -23 -46 hvcurveto
          -79 364 rmoveto
          51 22 -24 -45 hvcurveto
          -61 vlineto
          -45 -22 -24 -51 vhcurveto
          -80 199 hlineto
          260 -64 rmoveto
          104 -58 52 -107 vhcurveto
          -203 -682 209 hlineto
          107 58 52 103 hvcurveto
          65 vlineto
          59 -21 48 -57 17 vhcurveto
          52 19 20 46 57 vvcurveto
          endchar
        </CharString>
        <CharString name="C">
          -6 48 532 rmoveto
          -383 vlineto
          -95 61 -59 138 48 47 7 8 29 vhcurveto
          98 vlineto
          143 callsubr
          365 vlineto
          20 callgsubr
          endchar
        </CharString>
        <CharString name="CR">
          -408 endchar
        </CharString>
        <CharString name="Cacute">
          -6 246 833 -55 callsubr
          -285 -301 rmoveto
          -383 vlineto
          -95 61 -59 138 48 47 7 8 29 vhcurveto
          98 vlineto
          143 callsubr
          365 vlineto
          20 callgsubr
          endchar
        </CharString>
        <CharString name="Ccaron">
          -6 194 722 -58 callgsubr
          18 -310 rmoveto
          20 callgsubr
          -383 182 callgsubr
        </CharString>
        <CharString name="Ccedilla">
          -6 371 108 rmoveto
          143 callsubr
          365 vlineto
          20 callgsubr
          -383 vlineto
          -84 47 -56 106 -12 vhcurveto
          -15 -70 51 callgsubr
          8 34 rlineto
          46 46 7 8 28 hvcurveto
          endchar
        </CharString>
        <CharString name="D">
          70 160 callgsubr
          94 callgsubr
          58 -156 rmoveto
          -361 vlineto
          311 callsubr
          497 87 hlineto
          54 16 -27 -38 hvcurveto
          endchar
        </CharString>
        <CharString name="Dcaron">
          70 189 722 -58 callgsubr
          189 -668 rmoveto
          311 callsubr
          497 223 callgsubr
          -682 94 callgsubr
          endchar
        </CharString>
        <CharString name="Dcroat">
          304 callgsubr
          198 79 91 -79 208 223 callgsubr
          -299 -63 -91 63 -292 94 callgsubr
          endchar
        </CharString>
        <CharString name="E">
          0 58 682 115 callsubr
        </CharString>
        <CharString name="Eacute">
          0 226 833 -55 callsubr
          -255 -151 115 callsubr
        </CharString>
        <CharString name="Ecaron">
          0 175 722 -58 callgsubr
          257 -246 rmoveto
          95 -319 -682 319 94 -211 203 183 95 -183 195 vlineto
          endchar
        </CharString>
        <CharString name="Ecircumflex">
          0 211 780 -38 callsubr
          204 -135 rmoveto
          95 -319 -682 319 94 -211 203 183 95 -183 195 vlineto
          endchar
        </CharString>
        <CharString name="Edieresis">
          0 96 776 -84 callgsubr
          -189 -94 115 callsubr
        </CharString>
        <CharString name="Edotaccent">
          0 58 682 -32 callgsubr
          -204 107 49 callgsubr
        </CharString>
        <CharString name="Egrave">
          0 58 682 -32 callgsubr
          -256 151 34 callsubr
        </CharString>
        <CharString name="Emacron">
          0 58 682 -32 callgsubr
          -283 126 171 callsubr
          endchar
        </CharString>
        <CharString name="Eogonek">
          0 377 587 rmoveto
          95 -319 -682 274 vlineto
          -34 callgsubr
          1 94 -211 203 183 95 -183 195 hlineto
          endchar
        </CharString>
        <CharString name="Eth">
          304 callgsubr
          196 83 90 -83 211 223 callgsubr
          -302 -70 -90 70 -290 94 callgsubr
          endchar
        </CharString>
        <CharString name="Euro">
          29 178 240 rmoveto
          129 74 -129 62 129 73 -129 74 hlineto
          20 callgsubr
          -83 -52 -73 52 -62 -52 -74 52 -91 182 callgsubr
        </CharString>
        <CharString name="F">
          -22 160 callgsubr
          109 276 189 97 -189 214 202 95 vlineto
          endchar
        </CharString>
        <CharString name="G">
          -21 callgsubr
          endchar
        </CharString>
        <CharString name="Gbreve">
          -21 callgsubr
          243 305 2 callsubr
          endchar
        </CharString>
        <CharString name="H">
          104 345 682 rmoveto
          -299 -178 299 -109 -682 109 287 178 -287 110 682 vlineto
          endchar
        </CharString>
        <CharString name="I">
          150 callgsubr
          endchar
        </CharString>
        <CharString name="Iacute">
          0 227 833 -55 callsubr
          -256 -151 115 callsubr
        </CharString>
        <CharString name="Icircumflex">
          -184 115 780 -38 callsubr
          -19 -722 rmoveto
          109 682 -109 hlineto
          endchar
        </CharString>
        <CharString name="Idieresis">
          150 callgsubr
          -179 94 33 callsubr
        </CharString>
        <CharString name="Idotaccent">
          150 callgsubr
          -104 107 49 callgsubr
        </CharString>
        <CharString name="Igrave">
          0 58 682 -32 callgsubr
          -256 151 34 callsubr
        </CharString>
        <CharString name="Imacron">
          150 callgsubr
          -174 126 171 callsubr
          endchar
        </CharString>
        <CharString name="Iogonek">
          -184 160 callgsubr
          64 vlineto
          -34 callgsubr
          1 682 hlineto
          endchar
        </CharString>
        <CharString name="J">
          -181 61 682 rmoveto
          -480 vlineto
          -97 -15 -63 -25 -87 vhcurveto
          -30 -104 rlineto
          114 hlineto
          31 104 rlineto
          23 78 11 59 111 vvcurveto
          479 vlineto
          endchar
        </CharString>
        <CharString name="K">
          132 callgsubr
          endchar
        </CharString>
        <CharString name="L">
          -41 160 callgsubr
          304 92 -195 590 vlineto
          endchar
        </CharString>
        <CharString name="Lacute">
          -41 119 833 -55 callsubr
          -148 -151 rmoveto
          -682 304 92 -195 590 vlineto
          endchar
        </CharString>
        <CharString name="Lcaron">
          -41 69 722 -58 callgsubr
          153 -741 rmoveto
          590 -109 -682 304 92 vlineto
          endchar
        </CharString>
        <CharString name="Lslash">
          -40 173 92 rmoveto
          230 vlineto
          91 42 rlineto
          76 vlineto
          -91 -42 rlineto
          284 -109 -333 vlineto
          -56 -26 rlineto
          -77 vlineto
          56 26 rlineto
          -272 304 92 vlineto
          endchar
        </CharString>
        <CharString name="M">
          221 453 682 rmoveto
          -139 -390 -139 390 rlineto
          -117 -682 103 301 hlineto
          109 -13 93 0 vhcurveto
          119 -325 rlineto
          94 hlineto
          118 325 rlineto
          0 -12 -88 -114 vvcurveto
          -301 104 682 vlineto
          endchar
        </CharString>
        <CharString name="N">
          107 350 682 75 callsubr
        </CharString>
        <CharString name="NULL">
          -408 endchar
        </CharString>
        <CharString name="Nacute">
          107 261 833 -55 callsubr
          2 71 callsubr
        </CharString>
        <CharString name="Ncaron">
          107 213 722 -58 callgsubr
          192 71 callsubr
        </CharString>
        <CharString name="Ntilde">
          107 350 682 -61 callsubr
          -122 145 -59 callgsubr
        </CharString>
        <CharString name="O">
          64 callgsubr
          endchar
        </CharString>
        <CharString name="OE">
          282 245 94 rmoveto
          -53 -16 30 41 hvcurveto
          361 vlineto
          38 16 27 53 vhcurveto
          97 -497 hlineto
          319 493 rmoveto
          95 -428 vlineto
          -108 -57 -57 -96 hvcurveto
          -371 vlineto
          -96 47 -62 113 vhcurveto
          433 94 -211 203 183 95 -183 195 hlineto
          endchar
        </CharString>
        <CharString name="Oacute">
          64 250 833 -55 callsubr
          -289 -309 -81 callsubr
          endchar
        </CharString>
        <CharString name="Ocircumflex">
          64 237 780 -38 callsubr
          117 -559 rmoveto
          -45 -23 -30 -57 -58 -22 30 45 vhcurveto
          356 vlineto
          45 22 29 58 57 23 -30 -44 vhcurveto
          -268 -361 rmoveto
          -98 60 105 callgsubr
          366 vlineto
          97 -60 71 -128 -128 -60 -71 -97 vhcurveto
          endchar
        </CharString>
        <CharString name="Odieresis">
          64 113 776 -84 callgsubr
          -216 -252 -81 callsubr
          endchar
        </CharString>
        <CharString name="Ograve">
          64 callgsubr
          -182 314 34 callsubr
        </CharString>
        <CharString name="Ohungarumlaut">
          64 299 833 19 callsubr
          -230 -309 -81 callsubr
          endchar
        </CharString>
        <CharString name="Omacron">
          64 115 808 171 callsubr
          -310 -284 -81 callsubr
          endchar
        </CharString>
        <CharString name="Oslash">
          64 316 163 rmoveto
          -45 -23 -30 -57 -34 -22 10 18 -12 vhcurveto
          148 323 rlineto
          -160 80 rmoveto
          45 22 29 58 33 22 -10 -17 12 vhcurveto
          -147 -323 rlineto
          271 439 rmoveto
          -71 hlineto
          -7 -16 rlineto
          17 -29 -38 9 -46 hhcurveto
          -128 -60 -71 -97 hvcurveto
          -366 vlineto
          -37 8 -32 17 -27 vhcurveto
          -28 -62 rlineto
          70 hlineto
          7 16 rlineto
          -17 29 38 -9 47 hhcurveto
          128 60 70 98 hvcurveto
          366 vlineto
          36 -8 33 -18 27 vhcurveto
          endchar
        </CharString>
        <CharString name="Otilde">
          64 callgsubr
          -11 308 -59 callgsubr
        </CharString>
        <CharString name="P">
          46 160 callgsubr
          108 216 84 vlineto
          108 60 57 96 hvcurveto
          160 vlineto
          96 -60 57 -108 vhcurveto
          60 -163 rmoveto
          -140 vlineto
          -44 -20 -24 -51 vhcurveto
          -73 276 73 hlineto
          51 20 -24 -44 hvcurveto
          endchar
        </CharString>
        <CharString name="Q">
          64 156 519 rmoveto
          45 22 29 58 57 23 -30 -44 vhcurveto
          -356 vlineto
          -45 -23 -30 -57 -58 -22 30 45 vhcurveto
          318 -257 rmoveto
          -112 118 rlineto
          42 30 20 47 57 vvcurveto
          366 vlineto
          97 -60 71 -128 -128 -60 -71 -97 vhcurveto
          -366 vlineto
          -98 60 -70 128 10 9 0 1 9 vhcurveto
          80 -85 rlineto
          endchar
        </CharString>
        <CharString name="R">
          61 166 589 -12 callsubr
        </CharString>
        <CharString name="Racute">
          61 323 833 rmoveto
          -87 hlineto
          -41 -111 rlineto
          61 hlineto
          -90 -133 -12 callsubr
        </CharString>
        <CharString name="Rcaron">
          61 184 722 -58 callgsubr
          37 -244 -12 callsubr
        </CharString>
        <CharString name="S">
          4 24 534 -73 callsubr
          endchar
        </CharString>
        <CharString name="Sacute">
          4 217 833 -55 callsubr
          -280 -299 -73 callsubr
          endchar
        </CharString>
        <CharString name="Scaron">
          4 166 722 -58 callgsubr
          79 -426 rmoveto
          -42 23 -13 18 42 vvcurveto
          33 vlineto
          39 21 25 65 56 45 -10 -12 336 callgsubr
          8 -23 -47 11 -65 hhcurveto
          -133 -62 -59 -94 hvcurveto
          -61 vlineto
          -72 36 -43 56 -31 vhcurveto
          111 -61 rlineto
          38 -20 12 -17 -37 vvcurveto
          -30 vlineto
          -38 -28 -29 -75 -56 -54 12 14 -33 vhcurveto
          -105 vlineto
          -9 23 57 -12 64 hhcurveto
          143 69 58 98 hvcurveto
          58 vlineto
          65 -28 39 -54 29 vhcurveto
          endchar
        </CharString>
        <CharString name="T">
          -29 372 682 110 callsubr
        </CharString>
        <CharString name="Tcaron">
          -29 148 722 -58 callgsubr
          279 -151 110 callsubr
        </CharString>
        <CharString name="Thorn">
          32 317 275 rmoveto
          -44 -20 -24 -51 vhcurveto
          -74 269 74 hlineto
          51 20 -24 -45 hvcurveto
          -145 162 rmoveto
          113 -104 -682 104 113 81 vlineto
          108 60 57 96 hvcurveto
          151 vlineto
          96 -60 56 -108 vhcurveto
          endchar
        </CharString>
        <CharString name="U">
          36 callgsubr
          endchar
        </CharString>
        <CharString name="Uacute">
          71 250 833 -55 callsubr
          -18 -151 -63 callsubr
          endchar
        </CharString>
        <CharString name="Ucircumflex">
          71 240 780 -38 callsubr
          117 -40 -63 callsubr
          endchar
        </CharString>
        <CharString name="Udieresis">
          71 116 776 -84 callgsubr
          52 -94 -63 callsubr
          endchar
        </CharString>
        <CharString name="Ugrave">
          36 callgsubr
          -284 151 34 callsubr
        </CharString>
        <CharString name="Uhungarumlaut">
          36 callgsubr
          -130 151 19 callsubr
          endchar
        </CharString>
        <CharString name="Umacron">
          36 callgsubr
          -310 126 171 callsubr
          endchar
        </CharString>
        <CharString name="Uogonek">
          71 319 682 rmoveto
          -519 vlineto
          -45 -22 -30 -58 -57 -21 30 45 vhcurveto
          519 -108 -524 vlineto
          -98 58 -70 128 12 11 1 1 10 vhcurveto
          -25 -27 -18 -34 -35 vvcurveto
          -47 31 -26 57 vhcurveto
          19 57 -11 hlineto
          -22 -11 10 26 33 16 34 24 23 hvcurveto
          64 26 31 56 70 vvcurveto
          524 vlineto
          endchar
        </CharString>
        <CharString name="Uring">
          71 164 777 -9 callgsubr
          46 -95 -63 callsubr
          endchar
        </CharString>
        <CharString name="V">
          42 329 682 rmoveto
          -59 -315 -16 -90 -19 -142 -8 -37 rlinecurve
          -8 37 -20 141 -18 91 -61 315 rcurveline
          -111 hlineto
          141 -682 rlineto
          151 hlineto
          140 682 rlineto
          endchar
        </CharString>
        <CharString name="W">
          193 491 682 rmoveto
          -50 -320 rlineto
          -11 -77 -10 -103 0 vvcurveto
          0 -12 103 -11 77 vhcurveto
          -46 320 rlineto
          -98 hlineto
          -48 -319 rlineto
          -12 -91 -11 -94 0 vvcurveto
          0 -8 94 -13 90 vhcurveto
          -50 320 rlineto
          -98 hlineto
          101 -682 rlineto
          113 hlineto
          50 307 rlineto
          16 99 9 110 0 vvcurveto
          0 10 -108 17 -102 vhcurveto
          49 -306 rlineto
          108 hlineto
          102 682 rlineto
          endchar
        </CharString>
        <CharString name="X">
          20 301 682 rmoveto
          -86 -226 -89 226 rlineto
          -117 hlineto
          147 -342 -147 -340 rlineto
          118 hlineto
          88 224 86 -224 rlineto
          117 hlineto
          -147 340 147 342 rlineto
          endchar
        </CharString>
        <CharString name="Y">
          35 332 682 28 callgsubr
          endchar
        </CharString>
        <CharString name="Yacute">
          35 332 682 28 callgsubr
          -211 152 165 callgsubr
        </CharString>
        <CharString name="Ydieresis">
          35 97 776 -84 callgsubr
          84 -94 28 callgsubr
          endchar
        </CharString>
        <CharString name="Z">
          177 callsubr
          endchar
        </CharString>
        <CharString name="Zacute">
          -6 209 833 -55 callsubr
          -267 -151 rmoveto
          -93 230 vlineto
          104 callgsubr
          89 vlineto
          endchar
        </CharString>
        <CharString name="Zcaron">
          -6 160 722 -58 callgsubr
          271 -151 rmoveto
          -347 -93 230 hlineto
          104 callgsubr
          endchar
        </CharString>
        <CharString name="Zdotaccent">
          177 callsubr
          -222 107 49 callgsubr
        </CharString>
        <CharString name="a">
          -96 callsubr
          endchar
        </CharString>
        <CharString name="aacute">
          -96 callsubr
          -57 471 165 callgsubr
        </CharString>
        <CharString name="abreve">
          -96 callsubr
          -9 471 2 callsubr
          endchar
        </CharString>
        <CharString name="acircumflex">
          23 215 680 -38 callsubr
          96 -516 rmoveto
          -14 -18 -31 -12 -32 hhcurveto
          -45 -15 20 37 hvcurveto
          29 vlineto
          42 11 17 48 14 vhcurveto
          82 23 rlineto
          -218 205 rmoveto
          9 23 55 12 54 hhcurveto
          69 17 -22 -43 1 hvcurveto
          -71 vlineto
          -125 -34 rlineto
          -86 -24 -37 -44 -79 vvcurveto
          -33 vlineto
          -93 41 -48 96 61 31 22 23 21 vhcurveto
          -42 102 423 vlineto
          102 -47 59 -134 -62 -54 -10 -9 -26 vhcurveto
          endchar
        </CharString>
        <CharString name="acute">
          -58 152 733 165 callgsubr
        </CharString>
        <CharString name="adieresis">
          -96 callsubr
          -186 414 33 callsubr
        </CharString>
        <CharString name="ae">
          244 323 547 rmoveto
          24 -27 -42 13 -59 hhcurveto
          -62 -55 -12 -8 -23 hvcurveto
          -98 vlineto
          9 23 55 13 54 hhcurveto
          70 16 -24 -35 hvcurveto
          -73 vlineto
          -124 -38 rlineto
          -85 -25 -35 -43 -79 vvcurveto
          -34 vlineto
          -92 49 -49 97 64 53 14 25 33 vhcurveto
          -27 32 48 -14 67 hhcurveto
          68 35 9 9 30 hvcurveto
          97 vlineto
          -7 -24 -46 -12 -55 hhcurveto
          -71 -32 21 52 hvcurveto
          80 244 188 vlineto
          93 -50 65 -122 -57 -42 -19 -23 -27 vhcurveto
          -48 -443 rmoveto
          -15 -22 -31 -9 -30 hhcurveto
          -40 -20 18 39 hvcurveto
          29 vlineto
          42 11 18 48 14 vhcurveto
          84 23 rlineto
          244 166 rmoveto
          -101 -142 101 vlineto
          42 23 26 49 49 21 -26 -42 vhcurveto
          endchar
        </CharString>
        <CharString name="agrave">
          -96 callsubr
          -161 471 34 callsubr
        </CharString>
        <CharString name="amacron">
          -96 callsubr
          -180 446 171 callsubr
          endchar
        </CharString>
        <CharString name="ampersand">
          71 318 163 rmoveto
          -45 -22 -30 -57 -57 -21 30 45 vhcurveto
          69 vlineto
          46 19 28 53 vhcurveto
          85 hlineto
          150 93 rmoveto
          -46 62 -104 -62 -85 hlineto
          -54 -16 27 48 hvcurveto
          45 vlineto
          41 19 28 81 50 41 -7 -12 33 vhcurveto
          102 vlineto
          9 -27 -44 7 -55 hhcurveto
          -144 -62 -63 -95 hvcurveto
          -57 vlineto
          -61 26 -40 46 -16 vhcurveto
          -48 -16 -26 -40 -61 vvcurveto
          -78 vlineto
          -97 58 -71 128 128 55 71 97 vhcurveto
          146 46 vlineto
          endchar
        </CharString>
        <CharString name="aogonek">
          23 273 106 rmoveto
          -14 -18 -31 -12 -32 hhcurveto
          -45 -15 20 37 hvcurveto
          29 vlineto
          42 11 17 48 14 vhcurveto
          82 23 rlineto
          -218 205 rmoveto
          9 23 55 12 54 hhcurveto
          69 17 -22 -43 1 hvcurveto
          -71 vlineto
          -125 -34 rlineto
          -86 -24 -37 -44 -79 vvcurveto
          -33 vlineto
          -93 41 -48 96 61 31 22 23 21 vhcurveto
          -42 57 vlineto
          -34 callgsubr
          1 423 hlineto
          102 -47 59 -134 -62 -54 -10 -9 -26 vhcurveto
          endchar
        </CharString>
        <CharString name="apostrophemod">
          195 callgsubr
        </CharString>
        <CharString name="approxequal">
          131 407 315 rmoveto
          10 -57 -40 -10 65 callgsubr
          26 106 vvcurveto
          25 -4 19 0 vhcurveto
          -93 188 rmoveto
          10 -57 -40 -10 65 callgsubr
          26 106 vvcurveto
          25 -4 19 0 vhcurveto
          endchar
        </CharString>
        <CharString name="aring">
          -96 callsubr
          -141 415 -9 callgsubr
          endchar
        </CharString>
        <CharString name="asciicircum">
          -33 371 389 rmoveto
          -120 309 rlineto
          -128 hlineto
          -121 -309 rlineto
          106 hlineto
          78 241 78 -241 rlineto
          endchar
        </CharString>
        <CharString name="asciitilde">
          112 397 417 rmoveto
          10 -58 -40 -9 65 callgsubr
          25 107 vvcurveto
          25 -4 19 0 vhcurveto
          endchar
        </CharString>
        <CharString name="asterisk">
          116 480 616 rmoveto
          -30 94 -91 -30 -24 -8 -18 -9 -14 -10 rlinecurve
          5 16 3 21 25 vvcurveto
          95 -98 -95 vlineto
          -25 3 -21 5 -15 vhcurveto
          -14 9 -18 9 -24 8 -91 29 rcurveline
          -30 -93 91 -29 24 -8 20 -3 16 -1 rlinecurve
          -13 -10 -14 -14 -15 -20 -56 -77 rcurveline
          80 -58 56 77 14 20 10 18 5 15 rlinecurve
          6 -16 9 -18 14 -20 57 -76 rcurveline
          79 58 -56 76 -15 21 -14 14 -13 10 rlinecurve
          16 21 4 8 24 hvcurveto
          endchar
        </CharString>
        <CharString name="at">
          477 499 140 rmoveto
          0 -27 -19 -38 -34 -14 12 30 vhcurveto
          23 vlineto
          37 16 10 33 10 vhcurveto
          64 21 rlineto
          37 -389 rmoveto
          85 -88 vlineto
          -246 -43 127 192 192 42 128 247 248 40 -120 -194 -146 -29 -40 -56 -48 -20 20 53 hvcurveto
          229 vlineto
          77 -42 43 -99 -49 -46 -9 -7 -27 vhcurveto
          -76 vlineto
          10 38 36 9 48 hhcurveto
          47 10 -21 -30 hvcurveto
          -57 vlineto
          -101 -34 rlineto
          -63 -22 -35 -32 -68 vvcurveto
          -21 vlineto
          -73 39 -41 78 56 32 14 10 16 vhcurveto
          -35 23 43 -20 59 hhcurveto
          112 70 67 200 244 -81 155 -299 -294 -88 -162 -243 -243 84 -161 297 hvcurveto
          endchar
        </CharString>
        <CharString name="atilde">
          -96 callsubr
          9 465 -59 callgsubr
        </CharString>
        <CharString name="b">
          47 58 733 rmoveto
          -733 199 vlineto
          88 62 47 100 hvcurveto
          305 vlineto
          87 -54 43 -76 -48 -41 -12 -8 -22 vhcurveto
          171 vlineto
          131 -302 rmoveto
          -270 vlineto
          -43 -24 -18 -44 vhcurveto
          -63 363 hlineto
          10 22 28 8 29 hhcurveto
          33 19 -16 -34 hvcurveto
          endchar
        </CharString>
        <CharString name="backslash">
          29 36 825 rmoveto
          269 -982 rlineto
          100 hlineto
          -270 982 rlineto
          endchar
        </CharString>
        <CharString name="bar">
          -193 69 840 rmoveto
          -1009 76 1009 vlineto
          endchar
        </CharString>
        <CharString name="braceleft">
          -28 227 669 rmoveto
          32 17 22 45 vhcurveto
          29 92 -36 hlineto
          -96 -53 -60 -90 hvcurveto
          -223 vlineto
          -42 -26 -23 -47 vhcurveto
          -3 -93 3 hlineto
          47 26 -23 -42 hvcurveto
          -224 vlineto
          -90 53 -60 96 vhcurveto
          36 93 -29 hlineto
          -45 -17 21 32 hvcurveto
          204 vlineto
          78 -17 47 -72 11 vhcurveto
          72 12 17 50 79 vvcurveto
          endchar
        </CharString>
        <CharString name="braceright">
          -30 316 377 rmoveto
          -47 -26 23 42 hvcurveto
          223 vlineto
          90 -53 60 -96 vhcurveto
          -36 -92 29 hlineto
          45 17 -22 -32 hvcurveto
          -197 vlineto
          -79 17 -50 72 -12 vhcurveto
          -72 -11 -17 -47 -78 vvcurveto
          -204 vlineto
          -32 -17 -21 -45 vhcurveto
          -29 -93 36 hlineto
          96 53 60 90 hvcurveto
          224 vlineto
          42 26 23 47 vhcurveto
          4 93 hlineto
          endchar
        </CharString>
        <CharString name="bracketleft">
          -76 174 -71 rmoveto
          811 121 85 -210 -982 210 86 vlineto
          endchar
        </CharString>
        <CharString name="bracketright">
          -76 36 825 rmoveto
          -85 122 -811 -122 -86 211 982 vlineto
          endchar
        </CharString>
        <CharString name="breve">
          -58 227 733 2 callsubr
          endchar
        </CharString>
        <CharString name="brokenbar">
          69 840 rmoveto
          -384 76 384 vlineto
          -76 -625 rmoveto
          -384 76 384 vlineto
          endchar
        </CharString>
        <CharString name="bullet">
          -147 44 331 rmoveto
          -48 20 -37 65 65 21 37 48 48 -21 38 -65 -65 -20 -38 -48 vhcurveto
          endchar
        </CharString>
        <CharString name="c">
          -35 48 426 rmoveto
          -274 vlineto
          -102 57 -55 124 55 31 6 9 30 vhcurveto
          100 vlineto
          40 callsubr
          endchar
        </CharString>
        <CharString name="cacute">
          -35 237 733 -55 callsubr
          -276 -307 rmoveto
          -274 vlineto
          -102 57 -55 124 55 31 6 9 30 vhcurveto
          100 vlineto
          40 callsubr
          endchar
        </CharString>
        <CharString name="caron">
          -58 213 733 rmoveto
          -38 -58 -38 58 rlineto
          -58 hlineto
          55 -111 rlineto
          81 hlineto
          55 111 rlineto
          endchar
        </CharString>
        <CharString name="ccaron">
          -35 184 622 -58 callgsubr
          27 -314 rmoveto
          45 22 20 66 40 36 -8 -6 24 330 callgsubr
          -32 6 -54 hhcurveto
          -124 -57 -55 -103 hvcurveto
          -274 vlineto
          -102 57 -55 124 55 31 6 9 30 vhcurveto
          100 vlineto
          -7 -23 -36 -9 -42 hhcurveto
          -66 -22 20 46 hvcurveto
          endchar
        </CharString>
        <CharString name="ccedilla">
          -35 345 110 rmoveto
          40 callsubr
          -274 vlineto
          -88 43 -54 92 -12 vhcurveto
          -15 -71 51 callgsubr
          8 34 rlineto
          52 31 6 9 29 hvcurveto
          endchar
        </CharString>
        <CharString name="cedilla">
          -58 144 6 rmoveto
          -17 -79 51 callgsubr
          10 45 rlineto
          endchar
        </CharString>
        <CharString name="cent">
          -18 350 110 rmoveto
          -7 -23 -36 -9 -42 hhcurveto
          -66 -22 20 46 hvcurveto
          259 vlineto
          45 22 20 66 40 36 -8 -6 24 vhcurveto
          100 vlineto
          -19 5 -21 5 -28 2 rrcurveto
          72 -100 -74 vlineto
          -87 -14 -41 -53 -87 vvcurveto
          -274 vlineto
          -85 40 -53 85 -15 vhcurveto
          -71 100 69 vlineto
          30 2 21 5 21 6 rrcurveto
          endchar
        </CharString>
        <CharString name="circumflex">
          -58 270 622 rmoveto
          -55 111 rlineto
          -81 hlineto
          -55 -111 rlineto
          58 hlineto
          38 58 38 -58 rlineto
          endchar
        </CharString>
        <CharString name="colon">
          -180 35 403 245 callsubr
          -350 vmoveto
          29 callsubr
        </CharString>
        <CharString name="comma">
          -227 221 callgsubr
          endchar
        </CharString>
        <CharString name="copyright">
          289 41 329 rmoveto
          -191 60 -138 248 245 61 141 188 194 -54 137 -252 -249 -59 -140 -191 vhcurveto
          185 59 rmoveto
          -116 vlineto
          -75 36 -46 97 39 29 7 2 9 vhcurveto
          71 vlineto
          -6 -30 -16 -2 -29 hhcurveto
          -52 -4 22 29 hvcurveto
          112 vlineto
          30 4 22 52 28 16 -3 -6 30 vhcurveto
          71 vlineto
          2 -9 -28 7 -39 hhcurveto
          -97 -36 -45 -76 hvcurveto
          347 -59 rmoveto
          -144 -24 -107 -200 -204 -21 104 147 147 18 105 207 207 17 -103 -149 vhcurveto
          endchar
        </CharString>
        <CharString name="currency">
          52 158 386 rmoveto
          46 17 26 57 56 17 -27 -45 vhcurveto
          -90 vlineto
          -46 -17 -27 -56 -57 -17 27 46 vhcurveto
          252 93 rmoveto
          31 -5 27 -11 24 vhcurveto
          47 46 -64 64 -47 -46 rlineto
          11 -26 -32 7 -40 hhcurveto
          -40 -32 -7 -11 -26 hvcurveto
          -47 46 -64 -64 47 -46 rlineto
          -11 -24 -5 -27 -31 vvcurveto
          -96 vlineto
          -31 5 -28 11 -24 vhcurveto
          -47 -46 64 -64 47 47 rlineto
          -12 26 32 -6 40 hhcurveto
          40 32 6 12 25 hvcurveto
          47 -47 64 64 -46 46 rlineto
          11 23 5 29 31 vvcurveto
          endchar
        </CharString>
        <CharString name="d">
          46 67 callsubr
          endchar
        </CharString>
        <CharString name="dagger">
          -38 137 804 rmoveto
          -71 7 -81 0 vhcurveto
          0 -47 8 -62 vhcurveto
          -85 vlineto
          62 47 7 0 hvcurveto
          0 -7 -80 -88 vvcurveto
          -444 99 444 vlineto
          88 -8 80 0 vhcurveto
          0 51 -7 59 vhcurveto
          85 vlineto
          -59 -51 -8 0 hvcurveto
          0 8 81 71 vvcurveto
          endchar
        </CharString>
        <CharString name="daggerdbl">
          -37 136 804 rmoveto
          -71 8 -81 0 vhcurveto
          0 -48 8 -62 vhcurveto
          -85 vlineto
          62 48 7 0 hvcurveto
          -2 -100 0 -186 2 -104 rrcurveto
          0 -48 7 -62 vhcurveto
          -84 vlineto
          62 48 7 0 hvcurveto
          0 -8 -54 -98 vvcurveto
          99 hlineto
          98 -7 54 0 vhcurveto
          0 47 -7 62 vhcurveto
          84 vlineto
          -62 -47 -7 0 hvcurveto
          2 104 0 187 -2 99 rrcurveto
          0 47 -7 62 vhcurveto
          85 vlineto
          -62 -47 -8 0 hvcurveto
          0 7 81 71 vvcurveto
          endchar
        </CharString>
        <CharString name="danda">
          -106 144 hmoveto
          100 660 -100 hlineto
          endchar
        </CharString>
        <CharString name="dcaron">
          62 67 callsubr
          174 250 85 callgsubr
        </CharString>
        <CharString name="dcroat">
          48 290 119 rmoveto
          -12 -14 -28 -12 -34 hhcurveto
          -38 -18 19 37 hvcurveto
          261 vlineto
          47 26 23 47 vhcurveto
          59 hlineto
          148 204 rmoveto
          -40 47 -109 -47 -126 -55 126 -52 -70 hlineto
          -110 -59 -62 -102 hvcurveto
          -279 vlineto
          -88 45 -52 90 59 33 26 15 16 vhcurveto
          -37 105 631 40 vlineto
          endchar
        </CharString>
        <CharString name="degree">
          -5 47 661 rmoveto
          -93 43 -68 112 113 43 68 93 93 -43 70 -113 -112 -43 -70 -93 vhcurveto
          222 hmoveto
          -48 -13 -32 -54 -54 -12 32 48 48 12 32 54 54 13 -32 -48 vhcurveto
          endchar
        </CharString>
        <CharString name="dieresis">
          -58 52 676 33 callsubr
        </CharString>
        <CharString name="divide">
          58 41 373 rmoveto
          -92 383 92 vlineto
          -248 -218 rmoveto
          -32 310 callgsubr
          32 226 callgsubr
          343 vmoveto
          -32 13 -25 44 44 14 25 32 226 callgsubr
          endchar
        </CharString>
        <CharString name="dollar">
          4 190 407 rmoveto
          -42 23 -13 18 42 vvcurveto
          33 vlineto
          39 21 25 65 56 45 -10 -12 336 callgsubr
          -19 6 -34 9 -46 3 rrcurveto
          55 -101 -60 vlineto
          -88 -16 -42 -54 -77 vvcurveto
          -61 vlineto
          -72 36 -43 56 -31 vhcurveto
          111 -61 rlineto
          38 -20 12 -17 -37 vvcurveto
          -30 vlineto
          -38 -28 -29 -75 -56 -54 12 14 -33 vhcurveto
          -105 vlineto
          19 -8 44 -9 51 -3 rrcurveto
          -60 102 65 vlineto
          94 17 46 53 80 vvcurveto
          58 vlineto
          65 -28 39 -54 29 vhcurveto
          endchar
        </CharString>
        <CharString name="dotaccent">
          -58 127 689 49 callgsubr
        </CharString>
        <CharString name="dotlessi">
          82 callgsubr
          endchar
        </CharString>
        <CharString name="dottedcircle">
          252 139 517 rmoveto
          -26 18 -19 26 26 18 19 26 25 -18 19 -26 -26 -18 -19 -25 vhcurveto
          -82 -110 rmoveto
          -25 20 -19 26 24 20 19 25 25 -20 19 -24 -26 -20 -19 -25 vhcurveto
          -13 -126 rmoveto
          -25 19 -18 25 26 18 18 341 callsubr
          52 -116 rmoveto
          -26 18 -18 26 25 19 18 26 25 -19 19 -25 -26 -18 -19 -25 vhcurveto
          101 -75 rmoveto
          -26 19 -20 26 25 19 20 26 24 -19 20 -25 -26 -19 -20 -24 vhcurveto
          127 -16 rmoveto
          -26 18 -18 26 26 19 18 26 26 -19 18 -26 -26 -18 -18 -26 vhcurveto
          121 53 rmoveto
          -26 19 -18 25 25 20 18 26 25 -20 19 -25 -25 -19 -19 -25 vhcurveto
          73 98 rmoveto
          -25 19 -19 26 24 19 19 25 26 -19 19 -24 -26 -19 -19 -26 vhcurveto
          10 134 rmoveto
          -26 18 -18 26 25 19 18 26 26 -19 18 -25 -26 -18 -18 -26 vhcurveto
          -50 118 rmoveto
          -25 19 -19 25 26 18 19 341 callsubr
          -95 68 rmoveto
          -24 19 -20 26 25 18 20 24 26 -18 19 -25 -26 -19 -19 -26 vhcurveto
          -126 15 rmoveto
          -26 18 -18 26 26 18 18 26 26 -18 18 -26 -26 -18 -18 -26 vhcurveto
          endchar
        </CharString>
        <CharString name="doubledanda">
          36 79 hmoveto
          100 660 -100 hlineto
          207 -660 rmoveto
          100 660 -100 hlineto
          endchar
        </CharString>
        <CharString name="dvA">
          176 426 -18 callgsubr
          -361 -102 vlineto
          -84 callsubr
          89 85 vlineto
          endchar
        </CharString>
        <CharString name="dvAA">
          404 844 -18 callgsubr
          -405 -361 -85 callsubr
          115 -575 58 callsubr
        </CharString>
        <CharString name="dvAI">
          25 382 -18 callgsubr
          -155 229 rlineto
          -112 hlineto
          165 -229 rlineto
          -312 -85 87 -421 hlineto
          317 callgsubr
          91 vlineto
          -9 -32 -41 -10 -50 hhcurveto
          -65 -21 26 44 hvcurveto
          418 179 callgsubr
          vlineto
          endchar
        </CharString>
        <CharString name="dvAU">
          405 751 -18 callgsubr
          -44 143 rlineto
          -23 callgsubr
          -102 -361 -85 callsubr
          116 -575 44 callgsubr
        </CharString>
        <CharString name="dvAbbreviationsign">
          -5 47 329 rmoveto
          -93 43 -66 112 113 43 66 93 93 -43 67 -113 -112 -43 -67 -93 vhcurveto
          89 -1 rmoveto
          48 12 30 54 54 13 -30 -48 -48 -13 -28 -54 -54 -12 28 48 vhcurveto
          endchar
        </CharString>
        <CharString name="dvAcandra">
          176 426 299 rmoveto
          -85 callsubr
          89 85 -189 vlineto
          136 209 84 callsubr
        </CharString>
        <CharString name="dvAnusvara">
          -408 -166 784 rmoveto
          -4 callsubr
          endchar
        </CharString>
        <CharString name="dvAnusvara.amI">
          -408 32 781 rmoveto
          -4 callsubr
          endchar
        </CharString>
        <CharString name="dvAvagraha">
          13 389 195 rmoveto
          65 -13 41 -65 41 vhcurveto
          -128 81 rlineto
          -34 21 -10 20 33 vvcurveto
          18 vlineto
          29 6 23 56 vhcurveto
          164 93 -171 hlineto
          -115 -40 -51 -89 hvcurveto
          -27 vlineto
          -58 23 -45 54 -33 vhcurveto
          130 -82 rlineto
          35 -22 8 -20 -36 vvcurveto
          -49 vlineto
          -33 -12 -27 -60 vhcurveto
          -5 hlineto
          -60 -12 27 33 hvcurveto
          64 -100 -61 vlineto
          -99 50 -57 119 vhcurveto
          12 hlineto
          119 49 57 99 hvcurveto
          endchar
        </CharString>
        <CharString name="dvB">
          -163 -32 -18 callgsubr
          -85 430 85 vlineto
          -360 -307 rmoveto
          -139 vlineto
          -97 54 -55 122 120 53 52 100 vhcurveto
          139 vlineto
          100 -53 53 -120 -128 -48 -55 -98 vhcurveto
          259 -114 45 callgsubr
          endchar
        </CharString>
        <CharString name="dvBA">
          36 134 320 -64 callsubr
          -323 251 rmoveto
          -85 323 148 callgsubr
          85 vlineto
          endchar
        </CharString>
        <CharString name="dvBH">
          12 252 196 280 callsubr
          9 callsubr
          250 85 rmoveto
          -150 -5 callgsubr
          153 vlineto
          endchar
        </CharString>
        <CharString name="dvBHA">
          208 253 196 14 callgsubr
        </CharString>
        <CharString name="dvBH_LA">
          636 252 196 280 callsubr
          9 callsubr
          156 331 rmoveto
          -85 478 -99 vlineto
          5 -12 -21 5 -29 -30 callsubr
          -71 -48 -26 -46 -22 hvcurveto
          -115 -5 callgsubr
          103 -162 vlineto
          -109 54 -58 129 -13 callgsubr
          vhcurveto
          309 callgsubr
          -21 hhcurveto
          -73 -15 271 callgsubr
          49 47 146 callgsubr
          -130 100 130 vlineto
          31 16 24 47 23 21 106 callsubr
          35 callgsubr
        </CharString>
        <CharString name="dvBH_NA">
          590 651 179 callsubr
          -399 -130 280 callsubr
          9 callsubr
          161 331 rmoveto
          -85 427 -90 -243 vlineto
          -74 -44 -25 -46 -20 hvcurveto
          -107 107 hlineto
          91 -47 53 -107 -107 -47 -53 -91 -24 4 -21 191 callsubr
          -4 21 21 70 callsubr
          -104 -57 vlineto
          -7 callsubr
          -85 vlineto
          -86 45 154 callgsubr
          135 98 -131 vlineto
          -91 45 -50 105 105 44 50 91 vhcurveto
          236 callgsubr
        </CharString>
        <CharString name="dvBH_R">
          29 506 437 rmoveto
          -150 84 337 callsubr
          -17 4 -19 191 callsubr
          -4 15 18 vvcurveto
          32 8 22 47 46 8 -22 -32 vhcurveto
          -81 -57 vlineto
          -110 -45 -49 -85 hvcurveto
          -42 vlineto
          -85 45 -51 110 107 46 51 85 vhcurveto
          91 154 vlineto
          -53 vmoveto
          -308 -351 rlineto
          121 hlineto
          80 90 46 51 46 73 15 30 rlinecurve
          -250 72 88 callgsubr
          endchar
        </CharString>
        <CharString name="dvBH_RA">
          212 462 248 rmoveto
          -264 -300 rlineto
          121 hlineto
          76 85 51 55 23 41 5 17 rlinecurve
          1 hlineto
          -4 -33 -3 -54 -46 vvcurveto
          -18 94 580 89 85 -189 39 callsubr
          -110 -45 -49 -85 hvcurveto
          -42 vlineto
          -85 45 -51 110 107 46 51 85 vhcurveto
          91 110 vlineto
          -206 -88 88 callgsubr
          endchar
        </CharString>
        <CharString name="dvBH_R_YA">
          515 765 236 rmoveto
          -39 -14 -26 -18 -59 hhcurveto
          -84 -30 32 63 hvcurveto
          49 vlineto
          78 2 43 38 80 vvcurveto
          73 vlineto
          34 -9 21 -8 4 vhcurveto
          109 hlineto
          -512 -311 198 callsubr
          30 vlineto
          33 90 callgsubr
          155 313 rmoveto
          -85 127 vlineto
          28 12 -20 -39 hvcurveto
          -56 vlineto
          -41 -13 -17 -37 -7 vhcurveto
          25 -17 -34 11 -52 hhcurveto
          -69 90 337 callsubr
          -12 2 -27 191 callsubr
          -1 26 10 vvcurveto
          331 callgsubr
          8 -22 -32 vhcurveto
          -87 -57 vlineto
          -110 -44 -49 -86 hvcurveto
          -36 vlineto
          -85 44 -51 110 109 44 51 85 vhcurveto
          85 65 vlineto
          16 14 -1 -5 9 hvcurveto
          -76 vlineto
          -15 1 -13 2 -13 vhcurveto
          -240 -274 rlineto
          121 hlineto
          80 90 28 31 29 40 21 33 rlinecurve
          -39 37 59 -17 70 hhcurveto
          51 32 9 16 21 hvcurveto
          -111 35 callgsubr
        </CharString>
        <CharString name="dvBH_VA">
          439 693 -25 callgsubr
          -441 -215 280 callsubr
          9 callsubr
          161 331 rmoveto
          -85 276 247 callgsubr
          -86 -47 -33 -59 -16 hvcurveto
          -108 -5 callgsubr
          104 -123 vlineto
          -93 45 -52 111 38 29 7 3 13 vhcurveto
          174 callsubr
        </CharString>
        <CharString name="dvBH_YA">
          515 765 188 rmoveto
          -5 -25 -31 -4 -38 hhcurveto
          -83 -36 32 63 hvcurveto
          47 vlineto
          78 2 43 50 callsubr
          155 325 66 callgsubr
          -110 -44 -49 -85 hvcurveto
          -92 74 callsubr
          141 64 vlineto
          17 14 -2 -5 9 hvcurveto
          -65 vlineto
          76 callsubr
        </CharString>
        <CharString name="dvB_BA">
          299 397 320 rmoveto
          157 -139 rlineto
          -26 vlineto
          -3 -16 -22 -6 -36 hhcurveto
          -62 -21 28 40 hvcurveto
          -263 103 41 callgsubr
          420 38 rmoveto
          -151 131 rlineto
          21 11 23 13 43 hhcurveto
          35 23 -6 -6 16 hvcurveto
          184 251 rmoveto
          -770 -85 586 -82 hlineto
          229 callsubr
          -111 -59 -42 -106 hvcurveto
          -103 vlineto
          -162 129 -70 callgsubr
          125 57 41 14 25 26 vhcurveto
          -27 30 45 -12 59 hhcurveto
          37 28 6 4 14 hvcurveto
          -72 95 201 callsubr
        </CharString>
        <CharString name="dvB_BHA">
          463 249 -18 callgsubr
          -281 -85 281 hlineto
          259 -379 51 callsubr
          -374 -12 164 callgsubr
          579 442 rmoveto
          -246 -105 107 vlineto
          91 -47 53 -107 -108 -46 -53 -91 -22 3 -23 191 callsubr
          -3 25 17 70 callsubr
          -104 -57 vlineto
          -7 callsubr
          -21 131 callsubr
          52 38 12 22 26 vhcurveto
          -25 25 39 -13 57 hhcurveto
          109 45 50 86 hvcurveto
          135 108 -329 44 callgsubr
        </CharString>
        <CharString name="dvB_BH_RA">
          464 251 -18 callgsubr
          -282 -85 282 hlineto
          257 -311 88 callgsubr
          -374 -35 164 callgsubr
          580 442 rmoveto
          39 callsubr
          -110 -45 -49 -85 hvcurveto
          -42 vlineto
          -2 vlineto
          -157 125 -70 callgsubr
          122 81 47 29 50 20 vhcurveto
          -10 23 30 -6 36 hhcurveto
          107 46 51 85 hvcurveto
          121 callsubr
        </CharString>
        <CharString name="dvB_DA">
          268 134 317 41 callgsubr
          480 189 213 callgsubr
          -739 -85 546 156 callgsubr
          -98 vlineto
          -157 125 -70 callgsubr
          125 58 39 14 25 25 vhcurveto
          -22 26 38 -11 50 hhcurveto
          33 23 3 4 19 hvcurveto
          37 callsubr
          -27 hhcurveto
          -52 -18 22 35 hvcurveto
          141 162 callgsubr
        </CharString>
        <CharString name="dvB_DHA">
          337 134 317 164 callgsubr
          453 442 120 callsubr
          -526 -85 345 hlineto
          0 -10 -20 -39 vvcurveto
          -55 -31 callsubr
          -8 131 callsubr
          59 40 15 28 26 vhcurveto
          -30 32 50 -15 63 hhcurveto
          46 33 5 7 24 hvcurveto
          -72 44 callgsubr
        </CharString>
        <CharString name="dvB_DH_VA">
          579 833 -25 callgsubr
          -699 -95 250 callgsubr
          444 442 -54 callsubr
          -500 -85 342 134 callgsubr
          -18 vlineto
          -158 126 149 callsubr
          -123 -47 89 callsubr
          53 -55 123 63 43 18 32 25 vhcurveto
          -27 33 50 -14 66 hhcurveto
          55 48 12 11 38 hvcurveto
          77 callgsubr
        </CharString>
        <CharString name="dvB_JA">
          485 297 239 45 callgsubr
          785 442 rmoveto
          -951 17 callsubr
          84 hlineto
          endchar
        </CharString>
        <CharString name="dvB_JHA">
          588 838 320 rmoveto
          -288 hlineto
          -44 -11 17 30 hvcurveto
          4 vlineto
          30 12 16 44 vhcurveto
          184 158 103 hlineto
          -704 -270 rmoveto
          159 -128 rlineto
          -28 -8 -23 -14 -46 hhcurveto
          -63 -19 26 45 hvcurveto
          894 454 rmoveto
          -1060 -85 667 -71 -84 hlineto
          -105 227 callgsubr
          -17 2 -15 3 -13 vhcurveto
          -103 -74 hlineto
          -158 126 rlineto
          25 9 23 13 45 hhcurveto
          24 20 -5 0 hvcurveto
          85 vlineto
          0 -23 4 -28 -123 -48 -55 -97 vhcurveto
          -139 vlineto
          -98 54 -55 122 125 40 63 82 vhcurveto
          40 204 vlineto
          50 14 -22 -33 hvcurveto
          -30 vlineto
          -33 -16 -22 78 callsubr
          100 51 37 99 hvcurveto
          35 vlineto
          26 -8 22 -14 13 vhcurveto
          115 -240 -32 callsubr
        </CharString>
        <CharString name="dvB_J_YA">
          788 251 -18 callgsubr
          -136 -85 136 hlineto
          46 -259 rmoveto
          18 -84 76 -31 vhcurveto
          -12 8 -1 -3 11 -8 rrcurveto
          31 86 -108 -27 hvcurveto
          -163 -22 rmoveto
          -19 83 -74 31 vhcurveto
          15 -7 0 2 -11 9 rrcurveto
          -30 -80 100 33 -7 hvcurveto
          35 -43 43 -35 60 -22 rrcurveto
          77 37 -48 68 -31 -17 38 -42 hvcurveto
          -40 69 -55 52 -77 32 rrcurveto
          -89 -29 45 -66 32 19 -39 40 hvcurveto
          12 -18 12 -17 13 -16 rrcurveto
          904 -107 rmoveto
          144 callgsubr
          56 vlineto
          79 2 42 38 80 vvcurveto
          66 vlineto
          37 -6 22 0 vhcurveto
          98 259 callgsubr
          -934 -85 547 279 callsubr
          -49 vlineto
          -37 -11 -18 -29 -7 vhcurveto
          59 -7 -47 29 -90 hhcurveto
          -218 -92 73 279 callgsubr
          -130 vlineto
          -43 -26 -22 -53 -34 -51 14 7 -25 vhcurveto
          -36 -87 rlineto
          -11 34 61 -14 54 hhcurveto
          113 63 52 101 hvcurveto
          139 vlineto
          38 -9 20 0 vhcurveto
          22 hlineto
          60 24 -7 -41 hvcurveto
          -95 vlineto
          -37 callsubr
          90 vlineto
          endchar
        </CharString>
        <CharString name="dvB_JxA">
          485 324 18 244 callsubr
          -27 221 45 callgsubr
          790 442 rmoveto
          -956 17 callsubr
          89 hlineto
          endchar
        </CharString>
        <CharString name="dvB_LA">
          486 134 317 41 callgsubr
          792 442 rmoveto
          -958 -85 768 -99 hlineto
          -5 callsubr
          -87 vlineto
          -163 130 -70 callgsubr
          125 42 33 7 14 25 vhcurveto
          -54 24 53 -29 91 hhcurveto
          -13 callgsubr
          hvcurveto
          -55 callgsubr
        </CharString>
        <CharString name="dvB_L_YA">
          779 1029 -15 callsubr
          -895 -259 250 callgsubr
          1085 442 rmoveto
          -1251 -85 864 267 callsubr
          -17 -45 35 -77 hhcurveto
          -53 -30 317 callsubr
          -47 -54 -91 hvcurveto
          -83 vlineto
          -157 125 149 callsubr
          -123 -47 89 callsubr
          53 -55 123 40 32 7 14 24 vhcurveto
          -55 23 51 -28 90 hhcurveto
          16 38 1 1 9 hvcurveto
          91 vlineto
          -1 -10 -36 0 -13 hhcurveto
          -73 -14 271 callgsubr
          48 49 5 callgsubr
          9 23 45 49 7 -23 -33 vhcurveto
          -75 43 callsubr
        </CharString>
        <CharString name="dvB_NA">
          428 489 199 -104 callgsubr
          -355 -18 rmoveto
          149 -116 rlineto
          -30 -7 -21 -16 -45 hhcurveto
          -60 -16 26 46 hvcurveto
          151 44 rmoveto
          -146 113 rlineto
          25 8 20 13 43 hhcurveto
          60 15 -25 -47 hvcurveto
          583 319 rmoveto
          -900 -85 710 -90 -243 hlineto
          -46 -34 -9 -19 -24 hvcurveto
          25 -25 -39 15 -58 hhcurveto
          -123 -48 -55 -97 hvcurveto
          -131 vlineto
          -97 48 -55 123 51 36 11 20 25 vhcurveto
          -24 24 38 -12 52 hhcurveto
          105 44 50 91 hvcurveto
          -44 callgsubr
        </CharString>
        <CharString name="dvB_R">
          -161 137 319 rmoveto
          158 -116 rlineto
          -27 -8 -23 -14 -46 hhcurveto
          -63 -18 25 46 hvcurveto
          162 36 rmoveto
          -157 115 rlineto
          24 9 22 13 45 hhcurveto
          60 21 -24 -47 hvcurveto
          -258 -120 rmoveto
          -89 44 -51 100 -9 vhcurveto
          -159 -157 rlineto
          125 hlineto
          145 143 rlineto
          57 57 36 32 74 vvcurveto
          123 vlineto
          100 -53 53 -120 -128 -47 -55 -98 vhcurveto
          -73 307 rmoveto
          -85 443 85 vlineto
          endchar
        </CharString>
        <CharString name="dvB_RA">
          38 137 115 callgsubr
          -325 251 rmoveto
          -85 325 -82 vlineto
          5 -14 -28 8 -40 hhcurveto
          -111 -59 -42 -106 hvcurveto
          -132 vlineto
          -91 45 -34 81 -8 vhcurveto
          -128 -138 rlineto
          116 hlineto
          133 145 5 2 rlineto
          -102 95 52 callgsubr
        </CharString>
        <CharString name="dvB_SA">
          461 710 363 rmoveto
          -105 hlineto
          -90 callgsubr
          111 hlineto
          -576 -258 rmoveto
          162 -131 rlineto
          -4 vlineto
          -24 -10 -23 -12 -45 hhcurveto
          -65 -19 26 46 hvcurveto
          766 442 rmoveto
          -932 -85 531 hlineto
          -92 callgsubr
          117 -100 -192 vlineto
          -157 125 rlineto
          24 9 23 13 45 hhcurveto
          15 13 -2 0 hvcurveto
          84 vlineto
          0 -16 3 -19 -123 42 callgsubr
          125 39 32 7 12 24 vhcurveto
          -54 27 59 -32 87 100 callsubr
        </CharString>
        <CharString name="dvB_SHA">
          460 248 -18 callgsubr
          -280 -85 280 hlineto
          -114 -258 41 callgsubr
          272 259 rmoveto
          -1 7 -2 14 16 vvcurveto
          32 12 26 50 51 12 -24 -32 vhcurveto
          -128 331 callsubr
          -26 -25 6 4 -11 vhcurveto
          61 -100 -149 -1 0 vlineto
          -163 130 -70 callgsubr
          125 44 34 8 16 26 vhcurveto
          -54 26 56 -33 85 hhcurveto
          135 callsubr
          hvcurveto
          93 vlineto
          -13 -36 -32 -9 -50 hhcurveto
          -68 -30 125 callsubr
          11 29 62 callsubr
          134 vlineto
          91 -52 55 -111 -111 -51 -55 -91 -17 2 -17 1 -8 vhcurveto
          404 183 rmoveto
          -660 44 callgsubr
        </CharString>
        <CharString name="dvB_TA">
          298 134 317 41 callgsubr
          603 442 rmoveto
          -769 -85 580 -85 hlineto
          172 callsubr
          -112 -51 -61 -91 hvcurveto
          -94 vlineto
          -163 130 -70 callgsubr
          125 38 31 6 12 23 vhcurveto
          -53 15 41 -29 81 hhcurveto
          81 callsubr
          vlineto
          endchar
        </CharString>
        <CharString name="dvB_VA">
          283 537 -91 callsubr
          -403 -94 rmoveto
          159 -129 rlineto
          -27 -8 -23 -15 -44 hhcurveto
          -65 -19 26 46 hvcurveto
          588 442 rmoveto
          -754 -85 565 0 callsubr
          -109 -48 -54 -91 hvcurveto
          -102 vlineto
          -157 125 -70 callgsubr
          125 54 37 13 23 25 vhcurveto
          -24 26 39 -13 55 69 callsubr
        </CharString>
        <CharString name="dvB_YA">
          358 608 -102 callgsubr
          -474 -258 41 callgsubr
          663 442 rmoveto
          -829 -85 443 69 callgsubr
          -5 141 callsubr
          125 74 46 23 41 24 vhcurveto
          -28 37 53 -12 59 -20 callgsubr
        </CharString>
        <CharString name="dvC">
          290 callsubr
          9 -417 rmoveto
          -7 -21 -33 -4 -26 hhcurveto
          -50 -24 150 callsubr
          -259 -90 74 255 callsubr
          50 -50 108 31 43 5 7 22 vhcurveto
          endchar
        </CharString>
        <CharString name="dvCA">
          67 179 327 rmoveto
          186 callsubr
          -258 -90 73 255 callsubr
          48 -50 108 31 29 225 callsubr
          85 -538 -85 349 -418 vlineto
          313 callgsubr
          endchar
        </CharString>
        <CharString name="dvCH">
          121 333 498 rmoveto
          -37 -32 -10 0 hvcurveto
          -85 vlineto
          0 22 10 29 54 17 -22 -46 vhcurveto
          -169 91 callsubr
          125 vlineto
          44 13 22 49 vhcurveto
          343 85 -593 -85 111 hlineto
          -15 -13 -8 -20 -31 vvcurveto
          -131 vlineto
          2 callgsubr
          187 vlineto
          89 -52 50 -99 vhcurveto
          endchar
        </CharString>
        <CharString name="dvCHA">
          121 53 380 rmoveto
          2 callgsubr
          187 vlineto
          64 -17 43 -47 17 vhcurveto
          92 143 85 -592 -85 96 307 callsubr
          100 hmoveto
          155 callgsubr
          -36 -27 72 callgsubr
          -169 91 callsubr
          endchar
        </CharString>
        <CharString name="dvCH_RA">
          121 383 176 -60 callgsubr
          177 230 rmoveto
          85 -592 -85 96 vlineto
          118 callsubr
          -83 36 -45 87 -17 vhcurveto
          -66 -131 rlineto
          104 hlineto
          55 123 rlineto
          2 hlineto
          4 232 callsubr
          64 -17 43 -47 17 vhcurveto
          92 vlineto
          endchar
        </CharString>
        <CharString name="dvCH_R_YA">
          632 886 139 callgsubr
          1 vlineto
          78 44 36 79 hvcurveto
          25 vlineto
          91 -48 41 -106 vhcurveto
          -224 76 469 hlineto
          -503 -399 -60 callgsubr
          693 315 rmoveto
          -1108 -85 96 hlineto
          118 callsubr
          -83 36 -45 87 -17 vhcurveto
          -66 -131 rlineto
          104 hlineto
          55 123 rlineto
          6 232 callsubr
          18 -1 16 -3 14 vhcurveto
          167 306 callsubr
          -11 vlineto
          -38 -16 -11 -52 vhcurveto
          -54 -70 43 callgsubr
        </CharString>
        <CharString name="dvCH_YA">
          623 873 155 rmoveto
          -7 -32 -32 -4 -40 hhcurveto
          -84 -25 28 54 hvcurveto
          2 vlineto
          78 43 36 80 hvcurveto
          18 vlineto
          91 -47 41 -106 vhcurveto
          -212 hlineto
          11 -22 -28 5 -33 hhcurveto
          -37 1 -32 -10 0 vvcurveto
          -85 vlineto
          0 22 10 29 54 17 -22 -47 vhcurveto
          -181 91 callsubr
          125 vlineto
          44 13 22 49 vhcurveto
          655 280 callgsubr
          -1094 -85 111 hlineto
          -15 -13 -8 -20 -31 vvcurveto
          -131 vlineto
          2 callgsubr
          200 vlineto
          11 -1 10 -1 10 vhcurveto
          148 hlineto
          44 9 -18 -31 hvcurveto
          -5 173 callsubr
        </CharString>
        <CharString name="dvC_CA">
          315 754 -18 callgsubr
          -786 -85 597 -418 hlineto
          -7 -21 -19 -3 -26 hhcurveto
          -50 -22 150 callsubr
          -224 -86 39 hlineto
          0 -7 -28 -44 vvcurveto
          -122 vlineto
          -19 2 -17 3 -15 vhcurveto
          -5 -20 -24 -3 -27 hhcurveto
          -52 -30 17 44 184 callsubr
          52 86 -228 -90 73 255 callsubr
          65 -50 108 57 48 12 10 27 vhcurveto
          -14 24 33 -8 42 hhcurveto
          31 28 4 7 23 hvcurveto
          -69 100 201 callsubr
        </CharString>
        <CharString name="dvC_CHA">
          409 671 176 -60 callgsubr
          177 230 rmoveto
          85 -880 -85 384 vlineto
          118 callsubr
          -6 vlineto
          -6 -22 -26 -4 -29 55 callsubr
          45 38 8 8 26 vhcurveto
          -44 30 62 -20 103 hhcurveto
          228 callgsubr
          hvcurveto
          187 vlineto
          64 -17 43 -47 17 vhcurveto
          92 vlineto
          endchar
        </CharString>
        <CharString name="dvC_CH_VA">
          409 620 -134 rmoveto
          -7 -24 -22 -3 -32 hhcurveto
          -58 -20 22 39 hvcurveto
          31 vlineto
          39 19 23 57 vhcurveto
          0 13 vlineto
          25 22 1 2 20 hvcurveto
          -184 172 rmoveto
          41 18 15 51 vhcurveto
          61 89 -64 hlineto
          -51 -10 21 33 hvcurveto
          132 vlineto
          40 10 19 0 vhcurveto
          161 197 callgsubr
          -99 -98 -19 15 53 vhcurveto
          412 407 rmoveto
          85 -880 -85 383 vlineto
          0 -10 -20 -39 vvcurveto
          -136 vlineto
          -46 12 -32 35 -17 vhcurveto
          -37 -16 -16 -34 -43 vvcurveto
          -29 vlineto
          -7 vlineto
          -5 -22 -26 -4 -28 55 callsubr
          45 37 8 8 26 vhcurveto
          12 -18 17 -13 22 -10 rrcurveto
          -24 -18 -17 -26 -41 vvcurveto
          -35 vlineto
          -97 61 -44 106 33 28 4 6 23 vhcurveto
          -52 100 316 vlineto
          36 26 14 41 59 vvcurveto
          187 vlineto
          64 -18 43 -46 17 vhcurveto
          92 vlineto
          endchar
        </CharString>
        <CharString name="dvC_MA">
          481 732 438 -8 callsubr
          387 308 rmoveto
          -952 -85 565 193 callgsubr
          -26 callsubr
          -14 1 -13 3 -12 vhcurveto
          -5 -20 -23 -3 -24 55 callsubr
          55 46 12 10 26 vhcurveto
          -14 24 33 -8 42 hhcurveto
          109 45 51 85 hvcurveto
          50 callgsubr
        </CharString>
        <CharString name="dvC_NA">
          466 527 199 -104 callgsubr
          379 334 rmoveto
          -942 -85 752 284 callgsubr
          -15 3 -12 vhcurveto
          -5 -21 -25 -4 -26 hhcurveto
          -52 -28 150 callsubr
          -259 -90 74 255 callsubr
          63 -50 108 56 45 12 10 29 vhcurveto
          -15 23 32 -8 42 hhcurveto
          105 44 50 91 hvcurveto
          -44 callgsubr
        </CharString>
        <CharString name="dvC_R">
          290 callsubr
          -145 -248 rmoveto
          186 callsubr
          -259 -90 74 159 callgsubr
          -105 vlineto
          -93 46 -50 102 -5 vhcurveto
          -154 -136 rlineto
          125 hlineto
          147 136 rlineto
          100 vlineto
          -6 -21 -26 -5 -38 hhcurveto
          -56 -25 20 42 hvcurveto
          endchar
        </CharString>
        <CharString name="dvC_RA">
          68 -32 -18 callgsubr
          -85 350 -374 vlineto
          -7 -20 -20 -4 -25 hhcurveto
          -50 -22 20 42 hvcurveto
          75 vlineto
          186 callsubr
          -253 -90 68 159 callgsubr
          -71 vlineto
          -81 34 -49 74 -14 vhcurveto
          -130 -144 rlineto
          120 hlineto
          135 150 4 1 rlineto
          -120 101 136 callgsubr
          vlineto
          endchar
        </CharString>
        <CharString name="dvC_YA">
          395 645 -102 callgsubr
          189 85 rmoveto
          -866 -85 480 69 callgsubr
          -37 8 -30 14 -25 vhcurveto
          -9 -29 -32 -7 -34 hhcurveto
          -52 -30 20 42 hvcurveto
          110 vlineto
          186 callsubr
          -258 -90 73 159 callgsubr
          -114 vlineto
          -97 65 -51 115 80 54 25 18 32 vhcurveto
          -16 34 42 -7 46 -20 callgsubr
        </CharString>
        <CharString name="dvCandrabindu">
          -408 -162 924 rmoveto
          -31 12 -24 42 302 callsubr
          vhcurveto
          139 -55 84 callsubr
        </CharString>
        <CharString name="dvD">
          8 487 26 callsubr
          -344 429 rmoveto
          -75 callsubr
          154 320 callgsubr
          hlineto
          -111 -53 -40 -102 hvcurveto
          endchar
        </CharString>
        <CharString name="dvDA">
          8 37 211 rmoveto
          -75 callsubr
          154 320 callgsubr
          hlineto
          -111 -53 -40 -102 hvcurveto
          endchar
        </CharString>
        <CharString name="dvDA_mvR">
          8 202 callsubr
          -99 vlineto
          -93 52 -50 105 27 27 3 5 22 vhcurveto
          -50 vlineto
          -101 -1 -52 -47 -102 vvcurveto
          -102 64 -48 103 31 23 2 5 32 vhcurveto
          93 vlineto
          -4 -28 -25 -2 -30 hhcurveto
          -40 -33 6 50 51 31 6 41 25 23 -2 -5 34 hvcurveto
          313 -99 -74 vlineto
          -3 -14 -19 -5 -30 hhcurveto
          -52 -17 21 36 hvcurveto
          94 162 callgsubr
        </CharString>
        <CharString name="dvDD">
          12 383 26 callsubr
          107 379 -43 callgsubr
        </CharString>
        <CharString name="dvDDA">
          12 384 161 -43 callgsubr
        </CharString>
        <CharString name="dvDDH">
          12 384 26 callsubr
          -73 719 rmoveto
          -111 -49 -44 -97 hvcurveto
          -212 vlineto
          -98 52 -55 118 117 50 52 98 vhcurveto
          -58 callsubr
          149 165 97 85 -483 -85 288 -74 hlineto
          endchar
        </CharString>
        <CharString name="dvDDHA">
          12 205 501 rmoveto
          -111 -49 -44 -97 hvcurveto
          -212 vlineto
          -98 52 -55 118 117 50 52 98 vhcurveto
          -58 callsubr
          149 165 97 85 -483 -85 288 -74 hlineto
          endchar
        </CharString>
        <CharString name="dvDDH_DDHA">
          34 359 416 rmoveto
          159 114 85 -505 -85 292 -74 -49 vlineto
          -113 -48 -43 -92 hvcurveto
          -160 vlineto
          -45 13 -36 27 -25 vhcurveto
          -29 -22 -13 -34 -47 vvcurveto
          -142 vlineto
          -96 58 -52 345 callsubr
          56 49 96 vhcurveto
          13 246 callgsubr
          -12 -39 vhcurveto
          -6 vlineto
          -36 322 callsubr
          44 14 21 56 vhcurveto
          8 hlineto
          118 56 49 95 hvcurveto
          15 vlineto
          86 -52 39 -80 -30 -23 -8 0 vhcurveto
          -77 vlineto
          0 13 8 24 31 20 -13 -38 vhcurveto
          -8 vlineto
          -35 -13 -27 -64 -63 -13 28 36 vhcurveto
          154 vlineto
          35 13 18 49 vhcurveto
          endchar
        </CharString>
        <CharString name="dvDDH_R">
          12 180 -159 170 callsubr
          -303 819 rmoveto
          267 callgsubr
          -68 25 -47 54 -22 vhcurveto
          -69 -137 rlineto
          104 hlineto
          54 121 rlineto
          2 hlineto
          6 hlineto
          54 -121 rlineto
          104 hlineto
          -69 138 rlineto
          50 22 22 45 66 vvcurveto
          -58 callsubr
          149 165 97 85 hlineto
          endchar
        </CharString>
        <CharString name="dvDDH_RA">
          12 354 410 rmoveto
          165 97 85 -483 267 callgsubr
          -67 24 -47 54 -23 vhcurveto
          -68 -134 251 callsubr
          -68 135 rlineto
          49 23 22 45 65 vvcurveto
          -58 callsubr
          endchar
        </CharString>
        <CharString name="dvDDH_YA">
          517 767 155 rmoveto
          -7 -32 -32 -4 -40 hhcurveto
          -84 -25 28 54 hvcurveto
          2 vlineto
          77 44 36 80 hvcurveto
          25 vlineto
          91 -47 41 -107 vhcurveto
          -167 74 413 280 callgsubr
          -988 -85 288 -74 -51 hlineto
          -111 -49 -44 -97 hvcurveto
          -212 vlineto
          -98 52 -55 118 117 50 52 98 vhcurveto
          -58 callsubr
          319 hlineto
          44 9 -17 -32 hvcurveto
          -12 173 callsubr
        </CharString>
        <CharString name="dvDDHxA">
          12 205 501 rmoveto
          203 callsubr
          -49 39 -83 -29 -19 -8 0 vhcurveto
          -89 vlineto
          0 13 8 23 29 19 -12 -39 vhcurveto
          -24 vlineto
          -38 -13 -25 -58 -58 -13 26 38 vhcurveto
          206 vlineto
          32 11 21 50 vhcurveto
          149 165 97 85 -483 -85 288 -74 hlineto
          -97 -628 rmoveto
          -28 callsubr
          -44 -13 -25 -32 vhcurveto
          endchar
        </CharString>
        <CharString name="dvDD_DDA">
          29 234 callgsubr
          -39 -79 hvcurveto
          -8 vlineto
          -96 59 -23 101 215 callsubr
          13 -3 15 -3 16 -3 rrcurveto
          -9 -17 -5 -21 -21 vvcurveto
          -96 69 -23 83 vhcurveto
          25 hlineto
          46 13 -14 -30 1 hvcurveto
          -11 vlineto
          -38 -23 -12 -67 -49 -67 9 10 -45 vhcurveto
          -84 vlineto
          -11 46 59 -8 56 hhcurveto
          132 61 38 93 hvcurveto
          240 callgsubr
          -13 11 31 31 13 13 41 hvcurveto
          130 1 60 38 92 vvcurveto
          240 callgsubr
          -13 11 30 -1 hvcurveto
          4 vlineto
          30 14 11 41 vhcurveto
          endchar
        </CharString>
        <CharString name="dvDD_DDHA">
          28 234 callgsubr
          -38 -85 hvcurveto
          -6 vlineto
          -92 61 -24 99 215 callsubr
          12 -3 14 -3 15 -2 rrcurveto
          -19 -24 -9 -31 -36 vvcurveto
          -126 vlineto
          -95 58 -52 345 callsubr
          56 49 95 vhcurveto
          14 246 callgsubr
          -14 -35 vhcurveto
          -9 vlineto
          -35 322 callsubr
          41 12 22 46 2 vhcurveto
          3 hlineto
          130 63 37 94 hvcurveto
          240 callgsubr
          -14 11 31 31 14 13 41 hvcurveto
          endchar
        </CharString>
        <CharString name="dvDD_R">
          9 169 -159 170 callsubr
          90 576 99 callsubr
          21 -5 21 -3 21 -3 -63 -125 rcurveline
          104 hlineto
          54 121 8 1 54 -122 rlineto
          104 hlineto
          -71 140 rlineto
          52 23 25 42 63 vvcurveto
          108 callsubr
        </CharString>
        <CharString name="dvDD_RA">
          12 355 417 99 callsubr
          20 -4 20 -4 20 -2 216 callgsubr
          23 24 42 62 vvcurveto
          108 callsubr
        </CharString>
        <CharString name="dvDD_VA">
          34 278 -71 rmoveto
          -5 -15 -22 -4 -26 hhcurveto
          -47 -15 19 34 hvcurveto
          33 vlineto
          45 14 17 59 vhcurveto
          0 vlineto
          19 1 17 1 16 2 rrcurveto
          96 352 rmoveto
          151 99 85 -505 -85 302 -73 -55 vlineto
          -110 -53 -39 -79 hvcurveto
          -8 vlineto
          -96 60 -23 100 vhcurveto
          30 hlineto
          45 13 -15 -29 1 hvcurveto
          -10 vlineto
          -42 -29 -9 -61 -49 -80 8 11 -47 vhcurveto
          -85 vlineto
          13 -3 14 -2 15 -2 rrcurveto
          -12 -18 -8 -22 -27 vvcurveto
          -40 vlineto
          -89 47 -41 100 30 26 4 6 17 vhcurveto
          -58 94 316 vlineto
          22 21 11 29 39 vvcurveto
          12 vlineto
          93 -53 34 -109 vhcurveto
          -32 hlineto
          -41 -13 11 29 hvcurveto
          3 vlineto
          30 13 13 41 vhcurveto
          endchar
        </CharString>
        <CharString name="dvDD_YA">
          514 764 219 callsubr
          32 vlineto
          92 -47 36 -106 vhcurveto
          -164 71 409 259 callgsubr
          -986 6 callsubr
          22 vlineto
          -45 callgsubr
          322 306 callsubr
          -19 vlineto
          -38 -17 -11 -51 vhcurveto
          -54 -72 43 callgsubr
        </CharString>
        <CharString name="dvDDxA">
          12 158 -127 245 callgsubr
          226 288 -43 callgsubr
        </CharString>
        <CharString name="dvDH">
          -119 360 165 rmoveto
          -8 -28 -47 -7 -36 hhcurveto
          -61 -38 18 55 hvcurveto
          40 -35 callsubr
          -54 vlineto
          -96 70 -56 118 43 47 7 8 32 vhcurveto
          endchar
        </CharString>
        <CharString name="dvDHA">
          90 66 575 rmoveto
          127 callgsubr
          -190 -11 callgsubr
          -279 -85 hlineto
          endchar
        </CharString>
        <CharString name="dvDH_MA">
          504 756 211 callgsubr
          -200 -378 rmoveto
          -32 -8 96 callsubr
          57 hlineto
          -224 308 rmoveto
          -85 224 -137 -57 vlineto
          -109 -44 -49 -86 hvcurveto
          -109 vlineto
          -11 1 -10 1 -10 vhcurveto
          -7 -29 -33 -5 -34 hhcurveto
          -66 -36 18 55 hvcurveto
          39 -35 callsubr
          -52 vlineto
          -97 67 -56 130 61 48 14 11 36 vhcurveto
          -18 24 35 -10 48 hhcurveto
          110 44 51 85 hvcurveto
          158 103 -352 98 52 callgsubr
        </CharString>
        <CharString name="dvDH_NA">
          485 546 179 callsubr
          -234 334 rmoveto
          -85 423 -90 -243 vlineto
          -22 callsubr
          -146 vlineto
          -13 1 -12 2 -11 vhcurveto
          -7 -29 -31 -5 -33 hhcurveto
          -66 -36 18 55 hvcurveto
          40 -35 callsubr
          -54 vlineto
          -96 67 -56 130 58 48 13 11 35 vhcurveto
          -18 24 35 -9 45 hhcurveto
          105 43 50 91 hvcurveto
          131 vlineto
          33 -7 27 -2 4 vhcurveto
          104 -393 119 callgsubr
          85 hlineto
          endchar
        </CharString>
        <CharString name="dvDH_N_YA">
          805 1055 -102 callgsubr
          -506 -376 rmoveto
          -32 -10 -20 -44 -43 -10 -16 callsubr
          138 283 callsubr
          695 338 rmoveto
          -910 -85 524 113 callgsubr
          -39 -12 -18 -33 -7 vhcurveto
          59 -19 -53 28 -79 hhcurveto
          -174 hlineto
          -105 -44 -50 -91 hvcurveto
          -142 vlineto
          -13 1 -12 2 -11 vhcurveto
          -7 -30 -33 -5 -34 hhcurveto
          -66 -36 18 55 hvcurveto
          40 -35 callsubr
          -54 vlineto
          -96 67 -56 130 59 50 13 11 36 vhcurveto
          -18 24 34 -9 45 hhcurveto
          105 44 50 91 hvcurveto
          127 -71 callgsubr
          39 hlineto
          44 26 -14 -36 hvcurveto
          -76 vlineto
          -54 callgsubr
        </CharString>
        <CharString name="dvDH_R">
          -119 150 273 rmoveto
          72 callsubr
          42 80 callgsubr
          67 85 -264 112 callsubr
          -45 -31 callsubr
          -38 137 callsubr
        </CharString>
        <CharString name="dvDH_RA">
          93 343 -18 callgsubr
          -478 vlineto
          241 callgsubr
          23 vlineto
          288 callgsubr
          48 80 callgsubr
          83 85 -282 -85 97 158 callsubr
          -51 vlineto
          -46 12 -32 34 -18 vhcurveto
          133 callsubr
        </CharString>
        <CharString name="dvDH_VA">
          332 586 -25 callgsubr
          -255 249 -54 callsubr
          -253 -85 95 hlineto
          0 -7 -20 -39 vvcurveto
          -46 vlineto
          -46 11 -32 35 -18 vhcurveto
          33 callgsubr
        </CharString>
        <CharString name="dvDH_YA">
          407 657 -102 callgsubr
          -326 85 -24 callsubr
          -253 -85 95 hlineto
          0 -7 -20 -39 vvcurveto
          -46 vlineto
          -46 11 -32 35 -18 vhcurveto
          30 callgsubr
        </CharString>
        <CharString name="dvD_BA">
          37 294 18 rmoveto
          -129 101 rlineto
          5 11 14 3 18 hhcurveto
          22 44 3 8 20 hvcurveto
          -154 -76 rmoveto
          6 vlineto
          137 -107 rlineto
          -11 -12 -18 -6 -30 hhcurveto
          -66 -11 30 40 hvcurveto
          241 393 rmoveto
          168 95 85 -508 303 callgsubr
          -103 vlineto
          -45 14 -32 28 -20 vhcurveto
          -26 -20 -16 -30 -48 vvcurveto
          -51 vlineto
          -95 48 -52 124 124 50 55 96 1 vhcurveto
          305 -98 -105 vlineto
          -4 -19 -29 -4 -26 hhcurveto
          -58 -17 23 36 hvcurveto
          86 vlineto
          35 15 23 58 vhcurveto
          endchar
        </CharString>
        <CharString name="dvD_BHA">
          134 146 -104 rmoveto
          -11 16 -3 16 25 19 33 24 rcurveline
          28 -40 11 -15 3 -17 -25 -19 rlinecurve
          -27 -19 -15 9 -11 15 rrcurveto
          327 522 213 callgsubr
          -606 -85 412 156 callgsubr
          -108 vlineto
          -79 38 -48 76 -13 vhcurveto
          -63 -45 -39 54 -37 52 -50 9 -60 -45 rlinecurve
          -61 -43 -8 -51 36 -50 16 -23 rcurveline
          60 44 -15 20 -11 15 -3 15 25 19 rlinecurve
          25 17 12 -8 12 -14 38 -53 rcurveline
          -32 -23 -62 -45 -6 -51 34 -46 rlinecurve
          10 -15 35 -48 50 -11 62 44 rlinecurve
          62 45 5 51 -34 48 -29 41 rcurveline
          140 100 6 1 rlineto
          -88 99 270 113 callsubr
          -27 hhcurveto
          -51 -19 21 36 hvcurveto
          103 162 callgsubr
        </CharString>
        <CharString name="dvD_B_RA">
          33 295 74 rmoveto
          -2 vlineto
          -128 91 rlineto
          5 10 13 2 18 hhcurveto
          25 41 4 9 21 hvcurveto
          -155 -78 rmoveto
          9 vlineto
          135 -96 -7 -5 -11 -5 -13 -2 rlinecurve
          -12 hlineto
          -1 -2 rlineto
          -5 -4 0 -5 hhcurveto
          -66 -11 29 41 hvcurveto
          241 333 rmoveto
          168 92 85 -505 303 callgsubr
          -60 vlineto
          -45 14 -32 28 -21 vhcurveto
          -26 -19 -16 -31 -48 vvcurveto
          -33 vlineto
          -83 36 -43 83 -10 vhcurveto
          -102 -111 rlineto
          116 hlineto
          111 123 6 2 rlineto
          -76 97 451 -97 -62 vlineto
          -7 -17 -26 -6 -32 hhcurveto
          -58 -17 24 35 hvcurveto
          44 vlineto
          35 15 23 58 vhcurveto
          endchar
        </CharString>
        <CharString name="dvD_DA">
          13 362 427 rmoveto
          148 90 85 -484 -85 293 -68 -65 vlineto
          -106 -47 -40 -90 hvcurveto
          -11 vlineto
          -45 15 -30 28 -18 vhcurveto
          -28 -18 -15 -30 -45 vvcurveto
          -51 vlineto
          -86 52 -48 105 36 26 5 4 13 vhcurveto
          -71 99 228 -99 -74 vlineto
          -3 -10 -24 -6 -29 hhcurveto
          -52 -16 21 33 hvcurveto
          45 vlineto
          33 11 20 52 vhcurveto
          101 86 -101 hlineto
          -52 -11 20 32 hvcurveto
          7 vlineto
          32 11 20 52 vhcurveto
          endchar
        </CharString>
        <CharString name="dvD_DHA">
          177 530 332 callgsubr
          87 85 -649 -85 462 -76 -55 vlineto
          -111 -52 -40 -102 hvcurveto
          -146 vlineto
          249 callsubr
          10 vlineto
          219 callgsubr
          17 79 -17 46 callsubr
        </CharString>
        <CharString name="dvD_GA">
          22 366 332 callgsubr
          96 85 -494 -85 298 -76 -55 vlineto
          -111 -53 -40 -102 hvcurveto
          -129 vlineto
          -61 22 -43 46 -22 vhcurveto
          -58 vlineto
          -36 -6 -20 -48 -7 -17 1 0 vhcurveto
          -85 vlineto
          0 17 -4 22 101 32 41 95 vhcurveto
          49 vlineto
          24 26 3 7 20 hvcurveto
          -255 99 442 -99 -101 vlineto
          -3 -13 -19 -4 -31 hhcurveto
          -52 -16 21 36 hvcurveto
          124 vlineto
          32 11 20 52 vhcurveto
          endchar
        </CharString>
        <CharString name="dvD_GHA">
          180 103 62 rmoveto
          219 callgsubr
          57 -78 hlineto
          249 callsubr
          427 355 rmoveto
          168 90 85 -652 -85 462 -76 -55 vlineto
          -107 -52 -37 -94 -4 hvcurveto
          -57 46 callsubr
        </CharString>
        <CharString name="dvD_G_RA">
          16 363 332 callgsubr
          92 85 -487 -85 295 -76 -55 vlineto
          -111 -52 -40 -102 hvcurveto
          -84 vlineto
          -58 20 -41 40 -23 vhcurveto
          -45 vlineto
          -36 -6 -20 -47 -8 -17 2 0 vhcurveto
          -86 vlineto
          0 15 -4 24 102 31 41 95 vhcurveto
          32 3 vlineto
          25 26 2 8 23 hvcurveto
          -107 vlineto
          -210 -239 rlineto
          107 hlineto
          21 23 51 56 29 37 11 23 rlinecurve
          1 -1 rlineto
          -3 -10 0 -25 -23 vvcurveto
          -40 92 481 -99 -89 vlineto
          -3 -13 -19 -4 -31 hhcurveto
          -51 -17 22 35 hvcurveto
          79 vlineto
          32 12 20 51 vhcurveto
          endchar
        </CharString>
        <CharString name="dvD_MA">
          248 500 107 rmoveto
          -124 202 -96 -77 hlineto
          -2 -6 -26 -9 -38 hhcurveto
          -58 -15 24 33 hvcurveto
          74 vlineto
          32 12 23 58 vhcurveto
          160 168 133 hlineto
          188 85 rmoveto
          -720 -85 299 -76 -60 hlineto
          -117 -53 -43 -101 hvcurveto
          -77 vlineto
          -92 53 -53 108 28 38 5 8 16 vhcurveto
          -180 95 56 125 -125 98 678 90 vlineto
          endchar
        </CharString>
        <CharString name="dvD_NA">
          9 202 callsubr
          -132 vlineto
          -76 35 -40 71 -11 vhcurveto
          -54 -40 -75 -59 -6 -63 41 -45 rlinecurve
          28 -31 41 -2 0 vvcurveto
          64 56 rlineto
          0 -30 6 -15 16 vhcurveto
          -18 21 -1 24 34 27 117 92 rcurveline
          -104 99 274 -99 -91 vlineto
          -5 -19 -16 -3 -27 hhcurveto
          -52 -18 22 35 hvcurveto
          127 162 callgsubr
        </CharString>
        <CharString name="dvD_R">
          12 371 -4 rmoveto
          261 -98 -60 vlineto
          -18 -14 -12 -9 -37 hhcurveto
          -52 -17 22 36 hvcurveto
          127 189 callsubr
          154 248 callsubr
          -484 -85 291 -76 -54 hlineto
          -112 -52 -40 -102 hvcurveto
          -132 vlineto
          -78 36 -40 74 -11 vhcurveto
          -117 -162 rlineto
          111 hlineto
          123 169 5 2 rlineto
          -109 vlineto
          104 -59 rmoveto
          -91 hlineto
          308 callsubr
          endchar
        </CharString>
        <CharString name="dvD_RA">
          12 360 332 callgsubr
          92 85 -484 -85 292 -76 -54 vlineto
          -112 -52 -40 -102 hvcurveto
          -127 8 callsubr
        </CharString>
        <CharString name="dvD_VA">
          16 276 176 callgsubr
          86 273 213 callgsubr
          -487 -85 294 156 callgsubr
          80 callsubr
        </CharString>
        <CharString name="dvD_YA">
          84 524 -18 callgsubr
          -556 -85 170 -65 hlineto
          -56 -5 -39 -25 -74 vvcurveto
          -23 vlineto
          -42 13 -32 36 -19 vhcurveto
          -34 -19 -15 -35 -42 vvcurveto
          -18 vlineto
          -96 57 -49 123 46 41 6 7 30 vhcurveto
          -44 94 575 90 vlineto
          -190 hmoveto
          -442 vlineto
          -7 -23 -39 -5 -34 hhcurveto
          -66 -28 11 55 hvcurveto
          9 vlineto
          32 15 24 51 vhcurveto
          32 81 -38 hlineto
          -51 1 -10 21 32 vvcurveto
          14 vlineto
          37 17 13 42 vhcurveto
          36 124 hlineto
          endchar
        </CharString>
        <CharString name="dvE">
          25 366 106 rmoveto
          -9 -32 -40 -10 -51 hhcurveto
          -67 -21 26 46 hvcurveto
          416 161 callgsubr
          -418 vlineto
          -110 58 -52 128 54 44 10 10 27 vhcurveto
          endchar
        </CharString>
        <CharString name="dvEcandra">
          25 364 106 rmoveto
          -9 -32 -41 -10 -50 hhcurveto
          -65 -21 26 44 hvcurveto
          418 161 callgsubr
          -421 vlineto
          317 callgsubr
          -57 857 rmoveto
          -44 -26 -15 -59 329 callsubr
          -99 -3 hlineto
          -101 64 -42 120 119 64 42 101 vhcurveto
          3 vlineto
          endchar
        </CharString>
        <CharString name="dvEight">
          -6 callgsubr
        </CharString>
        <CharString name="dvEyelash">
          -148 -32 575 rmoveto
          438 85 -438 hlineto
          438 -320 rmoveto
          -193 hlineto
          -61 -34 1 49 hvcurveto
          -99 -9 hlineto
          -101 75 -27 120 vhcurveto
          192 hlineto
          endchar
        </CharString>
        <CharString name="dvEyelash_HA">
          235 579 419 330 callsubr
          -707 -85 511 -69 -69 vlineto
          -105 -50 -37 -87 hvcurveto
          -4 -51 vlineto
          -61 -34 5 50 hvcurveto
          -99 -10 hlineto
          -100 74 -32 120 vhcurveto
          79 hlineto
          6 -5 6 -5 8 -4 rrcurveto
          -32 -18 -17 -31 -47 vvcurveto
          -41 vlineto
          -92 56 -54 126 57 52 5 9 44 vhcurveto
          86 vlineto
          -9 -48 -40 -3 -59 hhcurveto
          -66 -22 248 callgsubr
          14 21 51 vhcurveto
          42 hlineto
          45 7 -16 -34 hvcurveto
          -24 90 31 vlineto
          84 -36 43 -96 vhcurveto
          -60 hlineto
          -43 -13 15 29 hvcurveto
          10 vlineto
          29 12 15 43 vhcurveto
          endchar
        </CharString>
        <CharString name="dvEyelash_YA">
          304 554 327 callsubr
          -38 hhcurveto
          -83 -36 30 64 hvcurveto
          30 vlineto
          78 2 43 38 80 vvcurveto
          93 vlineto
          37 -7 22 0 vhcurveto
          99 hlineto
          -586 85 rmoveto
          -85 389 vlineto
          0 7 -40 callsubr
          -77 vlineto
          -54 -24 -14 -75 vhcurveto
          -56 hlineto
          -61 -35 5 50 hvcurveto
          -98 -9 hlineto
          -101 74 -32 120 vhcurveto
          33 -31 hlineto
          -126 93 -41 121 40 35 4 6 23 vhcurveto
          -96 35 callgsubr
        </CharString>
        <CharString name="dvFive">
          53 callgsubr
        </CharString>
        <CharString name="dvFour">
          133 callgsubr
        </CharString>
        <CharString name="dvG">
          -152 212 575 rmoveto
          76 85 -320 -85 -93 callsubr
          endchar
        </CharString>
        <CharString name="dvGA">
          78 517 -18 callgsubr
          -549 -85 -93 callsubr
          248 246 callsubr
        </CharString>
        <CharString name="dvGH">
          -125 354 164 rmoveto
          -7 -22 -49 -7 -35 hhcurveto
          -62 1 callsubr
          175 85 -372 87 callsubr
          119 43 47 8 6 28 vhcurveto
          endchar
        </CharString>
        <CharString name="dvGHA">
          90 529 -18 callgsubr
          -561 87 callsubr
          119 43 33 6 6 28 vhcurveto
          -72 -67 callsubr
          89 vlineto
          -189 hmoveto
          -413 vlineto
          -7 -23 -34 -5 -35 hhcurveto
          -62 1 callsubr
          endchar
        </CharString>
        <CharString name="dvGH_MA">
          500 752 88 callsubr
          -26 callsubr
          -12 1 -11 2 -10 vhcurveto
          -6 -29 -32 -5 -32 hhcurveto
          -66 1 callsubr
          388 216 callsubr
          387 308 rmoveto
          -972 87 callsubr
          131 57 51 13 11 35 vhcurveto
          -17 25 34 -9 46 hhcurveto
          109 45 51 85 hvcurveto
          50 callgsubr
        </CharString>
        <CharString name="dvGH_NA">
          485 735 485 rmoveto
          314 callgsubr
          -13 1 -13 2 -12 vhcurveto
          -6 -29 -32 -4 -32 hhcurveto
          -66 1 callsubr
          570 hlineto
          -189 -376 -104 callgsubr
          379 334 rmoveto
          -957 87 callsubr
          131 56 51 13 10 35 vhcurveto
          -17 24 33 -9 45 hhcurveto
          105 44 50 91 hvcurveto
          -44 callgsubr
        </CharString>
        <CharString name="dvGH_R">
          -123 150 271 265 callgsubr
          44 80 callgsubr
          183 85 -380 112 callsubr
          -47 292 callsubr
          -36 137 callsubr
        </CharString>
        <CharString name="dvGH_RA">
          93 152 267 265 callgsubr
          48 80 callgsubr
          176 -393 hlineto
          241 callgsubr
          -184 416 rmoveto
          -85 97 vlineto
          126 callsubr
          -51 vlineto
          -46 12 -32 34 10 callsubr
          -22 vlineto
          -88 54 -54 99 -9 vhcurveto
          -140 -146 rlineto
          128 hlineto
          149 156 rlineto
          1 -107 263 callgsubr
        </CharString>
        <CharString name="dvGH_YA">
          403 654 -102 callgsubr
          -504 -305 rmoveto
          32 135 callgsubr
          92 -39 hlineto
          -51 1 -10 21 32 vvcurveto
          46 80 callgsubr
          292 69 callgsubr
          -33 6 -29 12 -23 vhcurveto
          -9 -36 -40 -6 -33 hhcurveto
          -66 -36 17 56 hvcurveto
          693 424 rmoveto
          -875 112 callsubr
          -48 vlineto
          -46 11 -33 35 -17 vhcurveto
          -37 -15 -15 -35 -49 vvcurveto
          -47 vlineto
          -98 67 -55 131 67 77 18 19 41 vhcurveto
          -17 35 42 -7 46 -20 callgsubr
        </CharString>
        <CharString name="dvG_BA">
          299 398 320 -64 callsubr
          184 251 rmoveto
          -771 -85 -93 callsubr
          248 343 148 callgsubr
          vlineto
          endchar
        </CharString>
        <CharString name="dvG_BHA">
          471 212 575 rmoveto
          49 85 -293 -85 -93 callsubr
          304 -131 14 callgsubr
        </CharString>
        <CharString name="dvG_BH_YA">
          760 -32 575 rmoveto
          -93 callsubr
          248 42 85 -286 vlineto
          1042 -472 76 callgsubr
          -512 -379 256 callsubr
          87 vlineto
          32 9 20 48 vhcurveto
          57 hlineto
          156 325 rmoveto
          -85 159 vlineto
          97 callgsubr
          -48 -18 -16 -54 -3 vhcurveto
          20 -18 -32 9 -48 hhcurveto
          -53 101 hlineto
          91 -46 53 -108 -107 143 callgsubr
          -4 298 callgsubr
          -98 -57 vlineto
          -109 -44 -49 -85 hvcurveto
          -92 vlineto
          -86 44 154 callgsubr
          141 49 vlineto
          35 20 -7 -28 hvcurveto
          -37 vlineto
          -126 93 -51 120 41 35 156 callsubr
          90 85 vlineto
          endchar
        </CharString>
        <CharString name="dvG_DA">
          277 624 323 callsubr
          -749 -85 144 178 callsubr
          312 156 callgsubr
          -146 vlineto
          -75 callsubr
          endchar
        </CharString>
        <CharString name="dvG_DHA">
          357 607 660 120 callsubr
          -546 -85 -93 callsubr
          248 121 vlineto
          127 callgsubr
          vlineto
          endchar
        </CharString>
        <CharString name="dvG_DH_VA">
          599 853 -25 callgsubr
          -255 249 -54 callsubr
          -520 -85 -93 callsubr
          248 118 vlineto
          126 callsubr
          -46 vlineto
          -46 11 -32 35 -18 vhcurveto
          33 callgsubr
        </CharString>
        <CharString name="dvG_DH_YA">
          674 924 -102 callgsubr
          -326 85 -24 callsubr
          -520 -85 -93 callsubr
          248 118 vlineto
          126 callsubr
          -46 vlineto
          -46 11 -32 35 -18 vhcurveto
          30 callgsubr
        </CharString>
        <CharString name="dvG_GA">
          325 763 -18 callgsubr
          -795 -85 -93 callsubr
          248 146 178 callsubr
          246 callsubr
        </CharString>
        <CharString name="dvG_GHA">
          357 607 162 rmoveto
          -7 -23 -34 -5 -35 hhcurveto
          -62 1 callsubr
          175 280 callgsubr
          -828 -85 -93 callsubr
          248 118 vlineto
          126 callsubr
          -57 -31 callsubr
          -51 vlineto
          -97 67 -56 119 43 33 6 6 28 vhcurveto
          -72 100 201 callsubr
        </CharString>
        <CharString name="dvG_JA">
          408 847 -18 callgsubr
          -879 -85 -93 callsubr
          248 446 -89 -319 -92 105 vlineto
          -94 callsubr
          113 -400 100 575 89 hlineto
          endchar
        </CharString>
        <CharString name="dvG_LA">
          488 928 -18 callgsubr
          -960 -85 -93 callsubr
          248 526 -99 vlineto
          5 -11 -21 5 -30 hhcurveto
          -55 -31 -21 -29 -21 hvcurveto
          26 -15 -34 24 -60 hhcurveto
          -103 -53 -54 -91 hvcurveto
          -70 callsubr
        </CharString>
        <CharString name="dvG_MA">
          446 697 438 -8 callsubr
          387 308 rmoveto
          -917 -85 -93 callsubr
          248 286 -137 -57 vlineto
          -109 -45 -49 -86 hvcurveto
          193 callsubr
        </CharString>
        <CharString name="dvG_NA">
          445 506 199 -104 callgsubr
          379 334 rmoveto
          -917 -85 -93 callsubr
          248 483 -90 -243 vlineto
          -105 -45 -50 -91 hvcurveto
          -146 vlineto
          34 callgsubr
        </CharString>
        <CharString name="dvG_NNA">
          497 539 258 -43 callsubr
          397 85 rmoveto
          -968 -85 -93 callsubr
          248 107 47 callsubr
          318 108 109 callsubr
        </CharString>
        <CharString name="dvG_N_YA">
          753 1003 -15 callsubr
          -503 -376 rmoveto
          -32 -10 -20 -43 -44 -10 -16 callsubr
          140 vlineto
          32 10 20 44 vhcurveto
          44 hlineto
          2 -6 7 -26 -35 vvcurveto
          693 336 rmoveto
          -1225 -85 -93 callsubr
          248 594 vlineto
          97 callgsubr
          -39 -12 -18 -33 -7 vhcurveto
          60 -19 -53 238 callgsubr
          43 264 callsubr
          26 -16 -36 hvcurveto
          -76 43 callsubr
        </CharString>
        <CharString name="dvG_R">
          63 callsubr
          endchar
        </CharString>
        <CharString name="dvG_RA">
          76 516 -18 callgsubr
          -548 -85 144 -207 hlineto
          -35 -18 -21 -43 -12 -16 1 1 -3 vhcurveto
          170 callgsubr
          214 114 -264 vlineto
          -264 -311 rlineto
          119 hlineto
          68 77 46 50 33 41 11 23 rlinecurve
          2 hlineto
          -5 -20 -5 -51 -66 vvcurveto
          -54 242 callgsubr
        </CharString>
        <CharString name="dvG_R_YA">
          371 624 188 rmoveto
          -5 -25 196 callsubr
          99 280 callgsubr
          -845 -85 144 -214 hlineto
          -35 -18 -22 -19 callsubr
          -95 vlineto
          -1 3 28 -2 14 hhcurveto
          94 53 52 94 hvcurveto
          221 215 vlineto
          291 callgsubr
          -95 hlineto
          -251 -295 rlineto
          120 hlineto
          72 82 36 41 24 32 16 25 rlinecurve
          -66 33 74 -28 90 268 callsubr
        </CharString>
        <CharString name="dvG_SA">
          476 726 363 rmoveto
          -105 hlineto
          -90 callgsubr
          111 259 callgsubr
          -948 -85 -93 callsubr
          248 303 vlineto
          -106 callsubr
          139 333 callgsubr
          90 hlineto
          endchar
        </CharString>
        <CharString name="dvG_VA">
          289 543 -91 callsubr
          185 249 rmoveto
          -760 -85 -93 callsubr
          248 327 247 callgsubr
          -109 -48 -54 -91 hvcurveto
          -155 vlineto
          -67 callgsubr
        </CharString>
        <CharString name="dvG_YA">
          371 621 -102 callgsubr
          189 85 rmoveto
          -842 -85 -93 callsubr
          248 212 vlineto
          -37 callgsubr
          -127 221 callsubr
        </CharString>
        <CharString name="dvGx">
          -152 212 575 rmoveto
          76 85 -320 -85 -93 callsubr
          -163 -275 rmoveto
          -28 callsubr
          -44 -13 -25 -32 vhcurveto
          endchar
        </CharString>
        <CharString name="dvGxA">
          83 115 106 rmoveto
          -44 -13 -25 -32 -28 callsubr
          hvcurveto
          407 554 rmoveto
          -549 -85 -93 callsubr
          248 246 callsubr
        </CharString>
        <CharString name="dvGx_R">
          63 callsubr
          56 -409 rmoveto
          -28 callsubr
          -44 -13 -25 -32 vhcurveto
          endchar
        </CharString>
        <CharString name="dvGx_RA">
          76 262 -30 rmoveto
          -44 -13 -25 -32 -28 callsubr
          hvcurveto
          254 690 rmoveto
          -548 -85 144 -207 hlineto
          -35 -18 -21 -43 -12 -16 1 1 -3 vhcurveto
          170 callgsubr
          214 114 -264 vlineto
          -264 -311 rlineto
          119 hlineto
          68 77 46 50 33 41 11 23 rlinecurve
          2 hlineto
          -5 -20 -5 -51 -66 vvcurveto
          -54 242 callgsubr
        </CharString>
        <CharString name="dvH">
          -6 480 321 rmoveto
          -279 252 callsubr
          112 85 -512 -64 callgsubr
          272 hlineto
          endchar
        </CharString>
        <CharString name="dvHA">
          25 43 144 rmoveto
          -97 72 -53 126 59 46 8 10 32 vhcurveto
          -38 callgsubr
          168 156 96 85 -496 -85 300 -69 -68 hlineto
          -106 -50 -37 -87 hvcurveto
          -16 vlineto
          1 -45 16 -28 31 -16 rrcurveto
          -32 -18 -17 -31 -47 vvcurveto
          endchar
        </CharString>
        <CharString name="dvHA_mU">
          25 267 -6 rmoveto
          43 12 -15 -36 -38 -12 -14 -46 hvcurveto
          -67 hlineto
          -35 -16 7 40 -36 hvcurveto
          -31 32 rlineto
          -116 hlineto
          77 -86 rlineto
          -60 50 43 -19 53 hhcurveto
          93 hlineto
          96 41 38 100 102 -42 37 -93 hvcurveto
          -50 hlineto
          180 callsubr
          14 21 50 vhcurveto
          42 hlineto
          45 8 -16 -34 hvcurveto
          -24 90 31 vlineto
          84 -37 43 -95 vhcurveto
          -60 252 callsubr
          96 85 -496 -85 300 -69 -68 hlineto
          -106 -50 -37 -87 hvcurveto
          -16 vlineto
          1 -45 16 -28 31 -16 rrcurveto
          -32 -18 -17 -31 -47 vvcurveto
          -41 vlineto
          -93 57 -54 131 1 vhcurveto
          endchar
        </CharString>
        <CharString name="dvHA_mUU">
          21 404 4 rmoveto
          60 -48 -40 18 -68 hhcurveto
          -21 hlineto
          180 callsubr
          13 21 51 vhcurveto
          42 hlineto
          45 8 -16 -34 hvcurveto
          -24 90 31 vlineto
          84 -37 43 -96 vhcurveto
          -59 252 callsubr
          96 85 -492 -85 296 -69 -68 hlineto
          -106 -50 -37 -87 hvcurveto
          -16 vlineto
          1 -45 16 -28 31 -16 rrcurveto
          -32 -18 -17 -31 -47 vvcurveto
          -41 vlineto
          -58 22 -36 46 -18 vhcurveto
          -21 -17 -10 -26 -38 vvcurveto
          -90 41 -36 88 19 66 3 0 vhcurveto
          81 vlineto
          0 -63 -3 -14 -35 -11 15 31 31 9 15 37 vhcurveto
          26 hlineto
          48 15 -4 -43 35 hvcurveto
          95 -119 rlineto
          114 hlineto
          endchar
        </CharString>
        <CharString name="dvHA_mvR">
          94 138 201 rmoveto
          29 14 18 45 vhcurveto
          139 hlineto
          29 14 -5 -28 -28 -14 -5 -29 hvcurveto
          -4 hlineto
          -80 -54 -25 -92 -102 72 -18 92 48 44 7 7 29 hvcurveto
          82 vlineto
          -7 -33 -36 -5 -41 hhcurveto
          -61 -21 5 31 27 15 6 26 hvcurveto
          8 hlineto
          89 44 35 82 82 -44 32 -89 hvcurveto
          -141 hlineto
          -43 -14 15 29 hvcurveto
          2 vlineto
          29 12 15 43 vhcurveto
          223 156 114 85 -566 -85 352 -69 -120 hlineto
          -105 -50 -37 -87 hvcurveto
          -11 vlineto
          -45 18 -25 27 -14 vhcurveto
          -27 -13 -19 -23 -47 vvcurveto
          -240 vlineto
          -105 77 -57 126 59 46 8 10 33 vhcurveto
          80 vlineto
          -11 -40 -35 -6 -57 hhcurveto
          -71 -44 25 59 hvcurveto
          endchar
        </CharString>
        <CharString name="dvH_LA">
          623 873 476 rmoveto
          -5 callsubr
          -20 -238 vlineto
          49 callsubr
          505 259 callgsubr
          -1095 -64 callgsubr
          231 -70 60 callgsubr
        </CharString>
        <CharString name="dvH_MA">
          258 510 190 rmoveto
          -115 12 hlineto
          79 -42 40 -96 vhcurveto
          -51 hlineto
          -43 -14 15 34 hvcurveto
          2 vlineto
          34 12 16 43 vhcurveto
          188 153 118 hlineto
          188 85 rmoveto
          -730 -85 323 -69 -87 hlineto
          -105 -50 -34 -93 hvcurveto
          -7 vlineto
          -52 17 -26 31 -16 vhcurveto
          -32 -15 -17 -26 -47 vvcurveto
          -80 286 callgsubr
          88 vlineto
          32 17 16 45 vhcurveto
          36 hlineto
          45 9 -16 -32 hvcurveto
          -148 94 61 116 -134 98 604 90 vlineto
          endchar
        </CharString>
        <CharString name="dvH_NA">
          595 845 172 callgsubr
          -22 callsubr
          -23 -251 vlineto
          49 callsubr
          477 hlineto
          -189 -376 -104 callgsubr
          379 334 rmoveto
          -1067 -64 callgsubr
          244 -39 28 callsubr
        </CharString>
        <CharString name="dvH_NNA">
          661 704 258 -43 callsubr
          -503 -254 rmoveto
          49 callsubr
          116 -254 hlineto
          617 339 rmoveto
          -1133 -64 callgsubr
          277 hlineto
          -79 7 49 -47 103 329 callgsubr
          318 108 109 callsubr
        </CharString>
        <CharString name="dvH_RA">
          83 401 425 rmoveto
          150 122 85 -555 -85 333 -66 -101 vlineto
          -106 -50 -33 -88 hvcurveto
          -10 vlineto
          1 -45 16 -31 31 -16 rrcurveto
          -32 -17 -17 -27 -47 vvcurveto
          -54 vlineto
          -101 56 -60 162 68 80 10 10 38 vhcurveto
          86 vlineto
          -9 -48 -61 -9 -71 hhcurveto
          -102 -21 29 50 hvcurveto
          51 vlineto
          32 14 21 50 vhcurveto
          73 hlineto
          -95 -121 89 -7 88 114 rlineto
          6 -9 2 -12 -16 vvcurveto
          -34 91 42 vlineto
          84 -37 36 -96 vhcurveto
          -128 hlineto
          -43 -14 15 29 hvcurveto
          9 vlineto
          29 13 15 43 vhcurveto
          endchar
        </CharString>
        <CharString name="dvH_VA">
          426 680 -91 callsubr
          -479 -90 rmoveto
          49 callsubr
          308 0 callsubr
          -109 -48 -54 -91 hvcurveto
          -40 vlineto
          426 339 rmoveto
          -897 -64 callgsubr
          231 -31 hlineto
          -67 callgsubr
        </CharString>
        <CharString name="dvH_YA">
          254 504 147 rmoveto
          -5 -16 -35 -5 -31 hhcurveto
          -29 hlineto
          9 13 4 18 24 vvcurveto
          12 vlineto
          79 -47 39 -107 vhcurveto
          -50 hlineto
          -44 -13 16 34 hvcurveto
          3 vlineto
          34 12 17 43 vhcurveto
          192 149 112 259 callgsubr
          -726 -85 324 -64 -92 hlineto
          -105 -50 -38 -93 hvcurveto
          -3 vlineto
          -52 18 -29 30 -16 vhcurveto
          -32 -17 -17 -28 -47 vvcurveto
          -78 286 callgsubr
          87 vlineto
          32 14 21 51 vhcurveto
          38 hlineto
          56 9 -20 -34 hvcurveto
          -15 vlineto
          -32 -20 -6 -36 vhcurveto
          -90 159 vlineto
          37 36 5 5 16 hvcurveto
          -83 100 601 90 vlineto
          endchar
        </CharString>
        <CharString name="dvI">
          0 141 170 rmoveto
          -98 -243 98 92 hlineto
          -2 11 31 -6 36 hhcurveto
          116 43 48 93 hvcurveto
          33 vlineto
          91 -52 44 -111 vhcurveto
          -24 hlineto
          -44 -13 17 30 hvcurveto
          3 vlineto
          30 12 17 45 vhcurveto
          159 158 89 85 -471 -85 282 -71 -59 hlineto
          -106 -51 -39 -92 hvcurveto
          -8 vlineto
          -91 54 -39 103 vhcurveto
          24 hlineto
          51 12 -23 -30 hvcurveto
          -28 vlineto
          -34 -19 -19 -52 -28 -26 5 2 -12 vhcurveto
          endchar
        </CharString>
        <CharString name="dvII">
          0 350 417 rmoveto
          158 89 85 -93 vlineto
          -15 29 -12 35 26 vvcurveto
          42 27 11 35 14 14 -2 -1 6 vhcurveto
          89 vlineto
          1 -6 -19 4 -39 hhcurveto
          -66 -67 -28 -97 -42 16 -38 14 -29 24 callgsubr
          endchar
        </CharString>
        <CharString name="dvII_Anusvara">
          2 415 923 rmoveto
          1 -6 -19 5 -32 hhcurveto
          -79 -69 -31 -103 -49 18 -51 20 -35 24 callgsubr
          159 158 89 85 -93 hlineto
          -20 34 -15 49 33 vvcurveto
          48 31 20 41 11 15 -2 -1 6 vhcurveto
          6 -43 rmoveto
          -35 -11 -20 -27 -26 11 -19 35 323 callgsubr
        </CharString>
        <CharString name="dvJ">
          -56 418 -18 callgsubr
          -450 -85 450 hlineto
          1 -89 rmoveto
          -325 -97 callgsubr
          119 hlineto
          endchar
        </CharString>
        <CharString name="dvJA">
          163 309 341 rmoveto
          151 callgsubr
          85 -634 -85 445 40 callgsubr
          endchar
        </CharString>
        <CharString name="dvJH">
          11 223 8 rmoveto
          152 callgsubr
          134 80 -281 hlineto
          102 callsubr
          122 85 -519 -41 callgsubr
          endchar
        </CharString>
        <CharString name="dvJHA">
          215 210 235 rmoveto
          223 callsubr
          -25 4 3 -13 vhcurveto
          61 -98 -233 98 85 vlineto
          -3 13 29 -4 36 hhcurveto
          99 52 37 99 hvcurveto
          35 vlineto
          26 -7 22 -14 13 vhcurveto
          114 -240 65 callsubr
          -686 -85 293 -71 -59 hlineto
          -106 227 callgsubr
          -91 54 -39 102 vhcurveto
          85 vmoveto
          250 callsubr
          -255 hlineto
          endchar
        </CharString>
        <CharString name="dvJH_MA">
          613 865 88 callsubr
          -102 -46 -43 -75 -5 hvcurveto
          -250 hlineto
          102 callsubr
          301 216 callsubr
          387 308 rmoveto
          -1085 -41 callgsubr
          152 callgsubr
          102 -46 hlineto
          26 callgsubr
        </CharString>
        <CharString name="dvJH_NA">
          613 863 172 callgsubr
          -22 callsubr
          -24 -264 vlineto
          102 callsubr
          498 hlineto
          -189 -376 -104 callgsubr
          379 334 rmoveto
          -1085 -41 callgsubr
          152 callgsubr
          117 -42 28 callsubr
        </CharString>
        <CharString name="dvJH_R">
          75 551 239 rmoveto
          -267 -323 rlineto
          114 hlineto
          80 94 35 42 29 42 9 24 rlinecurve
          -184 61 rmoveto
          26 -7 21 -14 14 vhcurveto
          205 80 -341 292 callgsubr
          222 158 115 85 -580 -85 365 -71 -122 hlineto
          -106 227 callgsubr
          -94 57 -36 93 vhcurveto
          3 hlineto
          48 11 -24 -29 hvcurveto
          -33 vlineto
          -33 315 callsubr
          -233 98 85 vlineto
          -3 13 26 -4 30 hhcurveto
          99 54 38 98 hvcurveto
          endchar
        </CharString>
        <CharString name="dvJH_RA">
          278 367 179 rmoveto
          26 -7 21 -14 14 vhcurveto
          166 hlineto
          1 -48 -229 -276 rlineto
          114 hlineto
          80 94 35 42 19 32 8 24 rlinecurve
          1 -1 rlineto
          -4 -32 -1 -30 -22 vvcurveto
          -29 92 581 90 85 -750 -85 365 -71 -122 vlineto
          -106 227 callgsubr
          -94 58 -36 93 vhcurveto
          2 hlineto
          48 11 -24 -29 hvcurveto
          -30 vlineto
          -34 315 callsubr
          -232 98 85 vlineto
          -3 13 26 -5 30 hhcurveto
          99 54 38 98 hvcurveto
          -156 272 rmoveto
          222 158 96 -255 -319 292 callgsubr
          endchar
        </CharString>
        <CharString name="dvJH_YA">
          523 773 -102 callgsubr
          -311 -185 rmoveto
          -70 -256 vlineto
          102 callsubr
          211 113 callgsubr
          -55 -24 -13 -75 vhcurveto
          478 270 rmoveto
          -994 -41 callgsubr
          152 callgsubr
          110 hlineto
          -109 11 88 -45 113 -20 callgsubr
        </CharString>
        <CharString name="dvJ_BA">
          410 508 320 -64 callsubr
          184 251 rmoveto
          -881 -85 697 -82 hlineto
          229 callsubr
          -43 -35 -6 -14 -27 hvcurveto
          -383 -97 callgsubr
          116 hlineto
          -3 -13 -1 -14 -15 vvcurveto
          -148 85 callsubr
        </CharString>
        <CharString name="dvJ_DA">
          381 727 323 callsubr
          -852 -85 659 -76 -54 vlineto
          -33 -27 -3 -8 -23 hvcurveto
          -396 -91 105 hlineto
          0 9 -20 -39 vvcurveto
          -136 vlineto
          -43 -25 -23 -53 -34 -25 4 7 -28 vhcurveto
          -91 vlineto
          -7 27 23 99 callgsubr
          64 52 102 hvcurveto
          144 vlineto
          39 -9 20 0 vhcurveto
          113 hlineto
          -3 -13 -1 -15 -17 vvcurveto
          -146 vlineto
          -75 callsubr
          endchar
        </CharString>
        <CharString name="dvJ_DDA">
          364 706 325 callgsubr
          -834 -85 638 -71 -55 vlineto
          -40 -33 -6 -12 -25 hvcurveto
          -359 -97 callgsubr
          96 hlineto
          -1 -8 -1 -9 -9 vvcurveto
          -63 callgsubr
          108 callsubr
        </CharString>
        <CharString name="dvJ_JA">
          512 952 -18 callgsubr
          -984 -85 794 -89 -668 -71 callsubr
          113 -400 -32 callsubr
        </CharString>
        <CharString name="dvJ_JHA">
          565 816 320 rmoveto
          -264 hlineto
          250 callsubr
          280 callgsubr
          -1037 -85 644 -71 -59 hlineto
          -41 -32 -6 -12 -25 hvcurveto
          -361 -97 callgsubr
          98 hlineto
          -1 -8 -1 -9 -9 vvcurveto
          -9 vlineto
          -91 54 -39 102 vhcurveto
          9 hlineto
          223 callsubr
          -25 4 3 -13 vhcurveto
          61 -98 -233 98 85 vlineto
          -3 13 29 -4 36 hhcurveto
          99 52 37 99 hvcurveto
          35 vlineto
          26 -7 22 -14 13 vhcurveto
          114 -240 -67 callsubr
          89 hlineto
          endchar
        </CharString>
        <CharString name="dvJ_J_NYA">
          588 419 400 rmoveto
          86 -325 -92 105 vlineto
          -94 callsubr
          727 260 rmoveto
          -1059 -85 870 -89 -329 -86 93 callgsubr
          113 231 callsubr
          89 hlineto
          endchar
        </CharString>
        <CharString name="dvJ_J_VA">
          746 1000 -91 callsubr
          185 249 rmoveto
          -1217 -85 1028 0 callsubr
          -39 -31 -7 -13 -24 hvcurveto
          -728 -71 callsubr
          113 hlineto
          -2 -12 -1 -13 -14 vvcurveto
          -155 vlineto
          -67 callgsubr
        </CharString>
        <CharString name="dvJ_J_YA">
          825 1075 -102 callgsubr
          189 85 rmoveto
          -1296 -85 910 113 callgsubr
          -38 -11 -18 -32 -7 vhcurveto
          57 -6 -48 34 -98 hhcurveto
          -596 -71 callsubr
          32 hlineto
          64 19 -11 -40 hvcurveto
          -86 vlineto
          -54 callgsubr
        </CharString>
        <CharString name="dvJ_KA">
          569 1009 575 rmoveto
          85 -1041 -85 659 -422 vlineto
          -39 callsubr
          -37 -29 -6 -13 -23 hvcurveto
          -375 -97 callgsubr
          113 hlineto
          -2 -11 -1 -12 -13 -35 callgsubr
        </CharString>
        <CharString name="dvJ_MA">
          556 807 438 -8 callsubr
          387 308 rmoveto
          -1027 -85 640 193 callgsubr
          -19 -17 -1 -3 -15 hvcurveto
          33 -20 -47 19 -74 hhcurveto
          -265 -97 callgsubr
          41 hlineto
          39 24 -4 -12 13 hvcurveto
          -14 -21 -6 -28 -32 182 callsubr
        </CharString>
        <CharString name="dvJ_NA">
          554 615 199 -104 callgsubr
          379 334 rmoveto
          -1026 -85 836 -90 -243 hlineto
          -47 -36 -10 -20 -24 hvcurveto
          22 -25 -42 9 -46 hhcurveto
          -247 -97 callgsubr
          58 hlineto
          26 19 -5 -9 12 hvcurveto
          -3 -13 -1 -14 -15 vvcurveto
          -146 vlineto
          34 callgsubr
        </CharString>
        <CharString name="dvJ_NY">
          6 135 400 rmoveto
          93 callgsubr
          179 86 -395 hlineto
          -167 174 rmoveto
          -85 562 85 vlineto
          endchar
        </CharString>
        <CharString name="dvJ_NYA">
          214 -32 -18 callgsubr
          -85 496 -89 -329 -86 116 vlineto
          -27 callgsubr
          113 -400 263 callgsubr
        </CharString>
        <CharString name="dvJ_NY_YA">
          521 771 236 rmoveto
          -39 -14 -26 -18 -59 hhcurveto
          -83 -31 32 63 hvcurveto
          55 vlineto
          278 callgsubr
          67 vlineto
          34 -9 21 -8 4 vhcurveto
          109 280 callgsubr
          -992 -85 573 hlineto
          29 11 -20 -39 hvcurveto
          -50 vlineto
          -37 -11 -18 -31 -8 vhcurveto
          58 -6 -56 25 -84 hhcurveto
          -258 -86 93 callgsubr
          34 hlineto
          58 16 -11 -39 1 hvcurveto
          -87 vlineto
          -126 86 -51 121 51 33 9 16 20 vhcurveto
          -111 100 201 callsubr
        </CharString>
        <CharString name="dvJ_R">
          -27 163 -51 32 callsubr
        </CharString>
        <CharString name="dvJ_RA">
          180 431 18 callgsubr
          endchar
        </CharString>
        <CharString name="dvJ_TA">
          412 851 -18 callgsubr
          -883 -85 694 -85 hlineto
          172 callsubr
          -32 -27 -5 -9 -22 hvcurveto
          -404 -97 callgsubr
          123 hlineto
          -5 -16 -2 -17 -19 vvcurveto
          -210 vlineto
          -59 callsubr
        </CharString>
        <CharString name="dvJ_TTA">
          372 716 405 212 callsubr
          -838 -85 648 -79 -33 vlineto
          -28 -24 -3 -7 -21 hvcurveto
          -416 -97 callgsubr
          124 hlineto
          -5 -16 -2 -19 -20 vvcurveto
          -188 vlineto
          -62 callgsubr
        </CharString>
        <CharString name="dvJ_VA">
          398 653 -91 callsubr
          185 249 rmoveto
          -870 -85 681 0 callsubr
          -39 -31 -7 -13 -24 hvcurveto
          -381 -97 callgsubr
          115 hlineto
          -2 -12 -1 -13 -14 vvcurveto
          -155 vlineto
          -67 callgsubr
        </CharString>
        <CharString name="dvJ_YA">
          475 725 287 callgsubr
          55 vlineto
          278 callgsubr
          67 vlineto
          37 -7 22 0 vhcurveto
          99 259 callgsubr
          -947 -85 560 279 callsubr
          -50 vlineto
          -36 -11 -18 -29 -8 vhcurveto
          55 -7 -54 27 -87 hhcurveto
          -254 -97 callgsubr
          30 hlineto
          60 24 -8 -40 hvcurveto
          -89 vlineto
          -37 callsubr
          90 vlineto
          endchar
        </CharString>
        <CharString name="dvJx">
          -56 42 -70 rmoveto
          -32 106 callgsubr
          32 32 -13 25 -43 -45 282 callsubr
          376 730 rmoveto
          -450 -85 450 hlineto
          1 -89 rmoveto
          -325 -97 callgsubr
          119 hlineto
          endchar
        </CharString>
        <CharString name="dvJxA">
          163 -7 -55 343 callsubr
          -13 25 -44 -44 -14 -25 -32 vhcurveto
          316 396 rmoveto
          151 callgsubr
          85 -634 -85 445 40 callgsubr
          endchar
        </CharString>
        <CharString name="dvJx_JxA">
          512 37 10 rmoveto
          -44 -14 -25 -32 273 callgsubr
          -13 25 -44 hvcurveto
          356 hmoveto
          -45 -13 -25 -32 273 callgsubr
          -14 25 -43 hvcurveto
          559 650 rmoveto
          -984 -85 794 -89 -668 -71 callsubr
          113 -400 -32 callsubr
        </CharString>
        <CharString name="dvJx_R">
          -13 6 -1 rmoveto
          -28 callsubr
          -44 -13 -25 -32 vhcurveto
          165 -50 32 callsubr
        </CharString>
        <CharString name="dvJx_RA">
          188 439 18 callgsubr
          -315 -392 rmoveto
          -28 callsubr
          -44 -13 -25 -32 vhcurveto
          endchar
        </CharString>
        <CharString name="dvJx_YA">
          475 37 8 62 callgsubr
          688 180 rmoveto
          144 callgsubr
          55 vlineto
          278 callgsubr
          67 vlineto
          37 -7 22 0 vhcurveto
          99 259 callgsubr
          -947 -85 560 279 callsubr
          -50 vlineto
          -36 -11 -18 -29 -8 vhcurveto
          55 -7 -54 27 -87 hhcurveto
          -254 -92 105 hlineto
          0 9 -19 -39 vvcurveto
          -128 vlineto
          -44 -25 -22 -53 -34 -25 4 7 -28 vhcurveto
          -91 vlineto
          -7 27 23 99 callgsubr
          64 52 102 hvcurveto
          136 48 callsubr
          30 hlineto
          60 24 -8 -40 hvcurveto
          -89 vlineto
          -37 callsubr
          90 vlineto
          endchar
        </CharString>
        <CharString name="dvK">
          3 470 348 rmoveto
          90 16 hlineto
          86 -33 55 -112 107 callsubr
          vhcurveto
          78 259 85 -643 -85 287 -422 vlineto
          -106 callgsubr
          endchar
        </CharString>
        <CharString name="dvKA">
          198 255 153 rmoveto
          -2 -9 -21 -6 -28 hhcurveto
          -49 -14 22 33 hvcurveto
          161 vlineto
          34 14 22 49 vhcurveto
          7 8 -1 4 hhcurveto
          86 vlineto
          -4 -13 3 -13 hhcurveto
          -101 -47 -49 -92 hvcurveto
          -73 callgsubr
          285 85 -669 -85 287 vlineto
          endchar
        </CharString>
        <CharString name="dvKH">
          142 136 249 -29 callsubr
        </CharString>
        <CharString name="dvKHA">
          352 603 206 -33 callgsubr
          21 -5 -3 11 vhcurveto
          188 256 rmoveto
          -823 -85 271 hlineto
          0 12 -19 -40 vvcurveto
          -120 vlineto
          -39 -15 -25 -49 -18 -17 2 2 -16 vhcurveto
          110 -96 -262 22 callgsubr
        </CharString>
        <CharString name="dvKH_KHA">
          915 1167 206 -33 callgsubr
          21 -5 -3 11 vhcurveto
          -684 -47 -33 callsubr
          871 406 rmoveto
          -1386 -101 callgsubr
          468 302 callgsubr
          -49 -18 78 callgsubr
          21 vlineto
          91 -42 155 callsubr
          -103 vlineto
          -96 38 -44 114 27 23 2 5 19 vhcurveto
          -81 24 73 -45 116 hhcurveto
          46 54 7 11 36 hvcurveto
          42 callsubr
        </CharString>
        <CharString name="dvKH_MA">
          757 1009 341 callgsubr
          -378 199 callsubr
          103 vlineto
          33 9 19 49 vhcurveto
          57 hlineto
          -327 5 -33 callsubr
          714 406 rmoveto
          -1229 -101 callgsubr
          475 193 callgsubr
          -28 -23 -3 -6 -19 hvcurveto
          45 -18 -42 23 -80 9 callgsubr
          30 24 3 6 20 vhcurveto
          -42 20 41 -23 75 239 callsubr
        </CharString>
</ttFont>
